%TF.GenerationSoftware,KiCad,Pcbnew,10.0.5*%
%TF.CreationDate,2026-08-20T18:12:14-07:00*%
%TF.ProjectId,blinky,626c696e-6b79-42e6-9b69-6361645f7063,rev?*%
%TF.SameCoordinates,Original*%
%TF.FileFunction,Profile,NP*%
%FSLAX46Y46*%
G04 Gerber Fmt 4.6, Leading zero omitted, Abs format (unit mm)*
G04 Created by KiCad (PCBNEW 10.0.5) date 2026-08-20 18:12:14*
%MOMM*%
%LPD*%
G01*
G04 APERTURE LIST*
%ADD10C,0.050000*%
%TA.AperFunction,Profile*%
%ADD11C,0.050000*%
%TD*%
G04 APERTURE END LIST*
D10*
X101044888Y-124500000D02*
X101044898Y-124415682D01*
X101044928Y-124331425D01*
X101044978Y-124247260D01*
X101045048Y-124163157D01*
X101045138Y-124079146D01*
X101045247Y-123995196D01*
X101045377Y-123911339D01*
X101045527Y-123827542D01*
X101045696Y-123743838D01*
X101045885Y-123660195D01*
X101046094Y-123576643D01*
X101046323Y-123493153D01*
X101046572Y-123409754D01*
X101046840Y-123326416D01*
X101047129Y-123243170D01*
X101047436Y-123159985D01*
X101047764Y-123076891D01*
X101048111Y-122993857D01*
X101048478Y-122910915D01*
X101048865Y-122828034D01*
X101049271Y-122745244D01*
X101049697Y-122662514D01*
X101050143Y-122579875D01*
X101050608Y-122497297D01*
X101051093Y-122414810D01*
X101051597Y-122332383D01*
X101052121Y-122250046D01*
X101052664Y-122167770D01*
X101053227Y-122085585D01*
X101053809Y-122003459D01*
X101054411Y-121921424D01*
X101055033Y-121839450D01*
X101055673Y-121757565D01*
X101056333Y-121675741D01*
X101057013Y-121594006D01*
X101057712Y-121512332D01*
X101058430Y-121430747D01*
X101059167Y-121349223D01*
X101059924Y-121267788D01*
X101060700Y-121186413D01*
X101061496Y-121105128D01*
X101062310Y-121023902D01*
X101063144Y-120942766D01*
X101063998Y-120861690D01*
X101064870Y-120780703D01*
X101065762Y-120699775D01*
X101066672Y-120618937D01*
X101067602Y-120538158D01*
X101068551Y-120457468D01*
X101069520Y-120376838D01*
X101070507Y-120296296D01*
X101071514Y-120215814D01*
X101072539Y-120135421D01*
X101073584Y-120055087D01*
X101074647Y-119974841D01*
X101075730Y-119894655D01*
X101076831Y-119814557D01*
X101077952Y-119734518D01*
X101079092Y-119654568D01*
X101080250Y-119574676D01*
X101081427Y-119494873D01*
X101082624Y-119415129D01*
X101083839Y-119335472D01*
X101085073Y-119255875D01*
X101086326Y-119176365D01*
X101087598Y-119096914D01*
X101088889Y-119017551D01*
X101090198Y-118938247D01*
X101091527Y-118859030D01*
X101092874Y-118779872D01*
X101094240Y-118700801D01*
X101095624Y-118621788D01*
X101097027Y-118542863D01*
X101098450Y-118463997D01*
X101099890Y-118385218D01*
X101101350Y-118306497D01*
X101102828Y-118227863D01*
X101104324Y-118149287D01*
X101105839Y-118070798D01*
X101107373Y-117992367D01*
X101108926Y-117914023D01*
X101110497Y-117835737D01*
X101112086Y-117757538D01*
X101113695Y-117679397D01*
X101115321Y-117601342D01*
X101116966Y-117523345D01*
X101118630Y-117445435D01*
X101120312Y-117367582D01*
X101122012Y-117289816D01*
X101123732Y-117212107D01*
X101125469Y-117134485D01*
X101127225Y-117056920D01*
X101128999Y-116979440D01*
X101130791Y-116902019D01*
X101132602Y-116824683D01*
X101134431Y-116747405D01*
X101136279Y-116670213D01*
X101138145Y-116593077D01*
X101140028Y-116516028D01*
X101141931Y-116439035D01*
X101143851Y-116362128D01*
X101145790Y-116285279D01*
X101147747Y-116208514D01*
X101149722Y-116131807D01*
X101151716Y-116055185D01*
X101153727Y-115978620D01*
X101155757Y-115902139D01*
X101157805Y-115825716D01*
X101159870Y-115749378D01*
X101161955Y-115673096D01*
X101164056Y-115596900D01*
X101166177Y-115520760D01*
X101168315Y-115444704D01*
X101170471Y-115368706D01*
X101172645Y-115292791D01*
X101174837Y-115216934D01*
X101177047Y-115141161D01*
X101179275Y-115065444D01*
X101181521Y-114989811D01*
X101183785Y-114914235D01*
X101186067Y-114838743D01*
X101188367Y-114763307D01*
X101190684Y-114687955D01*
X101193020Y-114612660D01*
X101195373Y-114537448D01*
X101197744Y-114462293D01*
X101200133Y-114387221D01*
X101202540Y-114312205D01*
X101204964Y-114237272D01*
X101207406Y-114162396D01*
X101209866Y-114087603D01*
X101212344Y-114012866D01*
X101214839Y-113938213D01*
X101217352Y-113863615D01*
X101219883Y-113789100D01*
X101222431Y-113714641D01*
X101224997Y-113640265D01*
X101227581Y-113565945D01*
X101230182Y-113491707D01*
X101232801Y-113417525D01*
X101235437Y-113343426D01*
X101238091Y-113269383D01*
X101240763Y-113195422D01*
X101243452Y-113121516D01*
X101246158Y-113047693D01*
X101248882Y-112973925D01*
X101251624Y-112900240D01*
X101254383Y-112826609D01*
X101257159Y-112753061D01*
X101259953Y-112679568D01*
X101262764Y-112606158D01*
X101265593Y-112532802D01*
X101268438Y-112459528D01*
X101271302Y-112386309D01*
X101274182Y-112313172D01*
X101277080Y-112240090D01*
X101279995Y-112167090D01*
X101282928Y-112094144D01*
X101285878Y-112021280D01*
X101288845Y-111948471D01*
X101291829Y-111875743D01*
X101294831Y-111803070D01*
X101297849Y-111730478D01*
X101300885Y-111657941D01*
X101303938Y-111585485D01*
X101307009Y-111513083D01*
X101310096Y-111440762D01*
X101313201Y-111368496D01*
X101316322Y-111296311D01*
X101319461Y-111224180D01*
X101322617Y-111152130D01*
X101325790Y-111080134D01*
X101328980Y-111008218D01*
X101332187Y-110936357D01*
X101335410Y-110864576D01*
X101338652Y-110792850D01*
X101341909Y-110721204D01*
X101345185Y-110649611D01*
X101348476Y-110578099D01*
X101351785Y-110506641D01*
X101355111Y-110435263D01*
X101358454Y-110363939D01*
X101361813Y-110292695D01*
X101365189Y-110221505D01*
X101368582Y-110150394D01*
X101371993Y-110079338D01*
X101375419Y-110008360D01*
X101378863Y-109937437D01*
X101382323Y-109866593D01*
X101385801Y-109795803D01*
X101389295Y-109725092D01*
X101392806Y-109654434D01*
X101396333Y-109583856D01*
X101399877Y-109513331D01*
X101403438Y-109442886D01*
X101407016Y-109372493D01*
X101410610Y-109302180D01*
X101414221Y-109231920D01*
X101417848Y-109161739D01*
X101421493Y-109091611D01*
X101425153Y-109021562D01*
X101428831Y-108951565D01*
X101432524Y-108881648D01*
X101436235Y-108811783D01*
X101439961Y-108741997D01*
X101443705Y-108672264D01*
X101447465Y-108602610D01*
X101451242Y-108533008D01*
X101455034Y-108463484D01*
X101458844Y-108394014D01*
X101462669Y-108324621D01*
X101466512Y-108255281D01*
X101470370Y-108186019D01*
X101474246Y-108116809D01*
X101478137Y-108047678D01*
X101482045Y-107978599D01*
X101485968Y-107909598D01*
X101489909Y-107840649D01*
X101493866Y-107771777D01*
X101497839Y-107702959D01*
X101501828Y-107634217D01*
X101505834Y-107565528D01*
X101509856Y-107496916D01*
X101513894Y-107428357D01*
X101517948Y-107359875D01*
X101522019Y-107291444D01*
X101526105Y-107223091D01*
X101530209Y-107154790D01*
X101534327Y-107086566D01*
X101538463Y-107018394D01*
X101542614Y-106950299D01*
X101546782Y-106882256D01*
X101550965Y-106814289D01*
X101555165Y-106746374D01*
X101559380Y-106678536D01*
X101563612Y-106610750D01*
X101567860Y-106543040D01*
X101572124Y-106475381D01*
X101576403Y-106407799D01*
X101580699Y-106340269D01*
X101585011Y-106272815D01*
X101589339Y-106205412D01*
X101593682Y-106138085D01*
X101598042Y-106070810D01*
X101602417Y-106003611D01*
X101606809Y-105936463D01*
X101611216Y-105869391D01*
X101615640Y-105802370D01*
X101620078Y-105735425D01*
X101624533Y-105668532D01*
X101629004Y-105601713D01*
X101633491Y-105534946D01*
X101637993Y-105468254D01*
X101642511Y-105401614D01*
X101647044Y-105335048D01*
X101651594Y-105268534D01*
X101656159Y-105202095D01*
X101660741Y-105135707D01*
X101665337Y-105069393D01*
X101669950Y-105003131D01*
X101674577Y-104936944D01*
X101679222Y-104870807D01*
X101683880Y-104804745D01*
X101688556Y-104738734D01*
X101693246Y-104672797D01*
X101697953Y-104606911D01*
X101702674Y-104541100D01*
X101707412Y-104475339D01*
X101712164Y-104409653D01*
X101716933Y-104344017D01*
X101721717Y-104278455D01*
X101726516Y-104212944D01*
X101731331Y-104147507D01*
X101736162Y-104082120D01*
X101741007Y-104016807D01*
X101745869Y-103951545D01*
X101750745Y-103886356D01*
X101755638Y-103821218D01*
X101760545Y-103756153D01*
X101765468Y-103691139D01*
X101770406Y-103626198D01*
X101775360Y-103561307D01*
X101780329Y-103496489D01*
X101785314Y-103431722D01*
X101790313Y-103367028D01*
X101795328Y-103302384D01*
X101800358Y-103237813D01*
X101805404Y-103173292D01*
X101810464Y-103108844D01*
X101815541Y-103044446D01*
X101820631Y-102980121D01*
X101825738Y-102915846D01*
X101830859Y-102851643D01*
X101835997Y-102787490D01*
X101841148Y-102723410D01*
X101846316Y-102659379D01*
X101851497Y-102595421D01*
X101856695Y-102531513D01*
X101861907Y-102467677D01*
X101867135Y-102403890D01*
X101872377Y-102340176D01*
X101877636Y-102276511D01*
X101882908Y-102212918D01*
X101888196Y-102149375D01*
X101893498Y-102085904D01*
X101898817Y-102022481D01*
X101904149Y-101959131D01*
X101909497Y-101895830D01*
X101914859Y-101832601D01*
X101920238Y-101769421D01*
X101925630Y-101706313D01*
X101931038Y-101643253D01*
X101936460Y-101580266D01*
X101941897Y-101517327D01*
X101947349Y-101454459D01*
X101952817Y-101391641D01*
X101958298Y-101328894D01*
X101963795Y-101266195D01*
X101969306Y-101203568D01*
X101974833Y-101140990D01*
X101980374Y-101078482D01*
X101985930Y-101016023D01*
X101991500Y-100953636D01*
X101997086Y-100891297D01*
X102002686Y-100829028D01*
X102008301Y-100766808D01*
X102013930Y-100704659D01*
X102019575Y-100642559D01*
X102025233Y-100580529D01*
X102030907Y-100518547D01*
X102036595Y-100456636D01*
X102042298Y-100394773D01*
X102048015Y-100332980D01*
X102053747Y-100271236D01*
X102059494Y-100209562D01*
X102065255Y-100147936D01*
X102071030Y-100086380D01*
X102076821Y-100024872D01*
X102082626Y-99963434D01*
X102088445Y-99902045D01*
X102094279Y-99840725D01*
X102100128Y-99779453D01*
X102105990Y-99718250D01*
X102111868Y-99657096D01*
X102117759Y-99596011D01*
X102123665Y-99534974D01*
X102129585Y-99474007D01*
X102135521Y-99413087D01*
X102141470Y-99352237D01*
X102147434Y-99291434D01*
X102153412Y-99230701D01*
X102159405Y-99170015D01*
X102165411Y-99109398D01*
X102171432Y-99048829D01*
X102177467Y-98988329D01*
X102183517Y-98927876D01*
X102189581Y-98867492D01*
X102195660Y-98807156D01*
X102201752Y-98746888D01*
X102207859Y-98686668D01*
X102213979Y-98626516D01*
X102220115Y-98566412D01*
X102226264Y-98506376D01*
X102232428Y-98446387D01*
X102238605Y-98386467D01*
X102244797Y-98326594D01*
X102251003Y-98266789D01*
X102257223Y-98207031D01*
X102263457Y-98147341D01*
X102269706Y-98087698D01*
X102275968Y-98028123D01*
X102282245Y-97968596D01*
X102288534Y-97909136D01*
X102294840Y-97849723D01*
X102301158Y-97790377D01*
X102307491Y-97731079D01*
X102313837Y-97671848D01*
X102320198Y-97612664D01*
X102326572Y-97553547D01*
X102332961Y-97494477D01*
X102339363Y-97435475D01*
X102345780Y-97376519D01*
X102352210Y-97317630D01*
X102358655Y-97258788D01*
X102365112Y-97200013D01*
X102371585Y-97141285D01*
X102378070Y-97082623D01*
X102384570Y-97024008D01*
X102391083Y-96965460D01*
X102397611Y-96906958D01*
X102404152Y-96848524D01*
X102410707Y-96790135D01*
X102417276Y-96731813D01*
X102423859Y-96673537D01*
X102430454Y-96615328D01*
X102437065Y-96557164D01*
X102443688Y-96499068D01*
X102450326Y-96441017D01*
X102456977Y-96383033D01*
X102463642Y-96325095D01*
X102470320Y-96267223D01*
X102477013Y-96209396D01*
X102483719Y-96151636D01*
X102490439Y-96093922D01*
X102497171Y-96036274D01*
X102503919Y-95978671D01*
X102510678Y-95921135D01*
X102517453Y-95863644D01*
X102524240Y-95806219D01*
X102531042Y-95748839D01*
X102537856Y-95691526D01*
X102544684Y-95634257D01*
X102551525Y-95577055D01*
X102558381Y-95519897D01*
X102565249Y-95462805D01*
X102572132Y-95405759D01*
X102579027Y-95348778D01*
X102585937Y-95291842D01*
X102592858Y-95234972D01*
X102599795Y-95178146D01*
X102606744Y-95121386D01*
X102613707Y-95064671D01*
X102620683Y-95008021D01*
X102627673Y-94951416D01*
X102634675Y-94894876D01*
X102641692Y-94838381D01*
X102648721Y-94781951D01*
X102655764Y-94725566D01*
X102662820Y-94669245D01*
X102669890Y-94612970D01*
X102676972Y-94556759D01*
X102684069Y-94500592D01*
X102691177Y-94444490D01*
X102698300Y-94388433D01*
X102705435Y-94332441D01*
X102712585Y-94276492D01*
X102719747Y-94220609D01*
X102726922Y-94164769D01*
X102734110Y-94108994D01*
X102741313Y-94053264D01*
X102748527Y-93997597D01*
X102755756Y-93941975D01*
X102762996Y-93886417D01*
X102770251Y-93830903D01*
X102777518Y-93775453D01*
X102784799Y-93720047D01*
X102792092Y-93664705D01*
X102799399Y-93609407D01*
X102806718Y-93554173D01*
X102814051Y-93498983D01*
X102821396Y-93443856D01*
X102828755Y-93388774D01*
X102836126Y-93333755D01*
X102843512Y-93278779D01*
X102850909Y-93223868D01*
X102858320Y-93169000D01*
X102865743Y-93114195D01*
X102873180Y-93059434D01*
X102880629Y-93004736D01*
X102888092Y-92950082D01*
X102895566Y-92895491D01*
X102903055Y-92840944D01*
X102910555Y-92786459D01*
X102918070Y-92732018D01*
X102925596Y-92677640D01*
X102933136Y-92623306D01*
X102940688Y-92569034D01*
X102948254Y-92514805D01*
X102955831Y-92460639D01*
X102963422Y-92406517D01*
X102971025Y-92352457D01*
X102978642Y-92298440D01*
X102986270Y-92244486D01*
X102993913Y-92190574D01*
X103001567Y-92136726D01*
X103009235Y-92082920D01*
X103016914Y-92029176D01*
X103024607Y-91975476D01*
X103032312Y-91921837D01*
X103040030Y-91868242D01*
X103047760Y-91814709D01*
X103055504Y-91761218D01*
X103063259Y-91707789D01*
X103071028Y-91654404D01*
X103078809Y-91601080D01*
X103086603Y-91547798D01*
X103094408Y-91494579D01*
X103102228Y-91441402D01*
X103110058Y-91388286D01*
X103117903Y-91335214D01*
X103125759Y-91282202D01*
X103133628Y-91229234D01*
X103141509Y-91176326D01*
X103149403Y-91123462D01*
X103157309Y-91070658D01*
X103165229Y-91017897D01*
X103173159Y-90965197D01*
X103181104Y-90912539D01*
X103189059Y-90859942D01*
X103197028Y-90807388D01*
X103205008Y-90754894D01*
X103213002Y-90702443D01*
X103221007Y-90650052D01*
X103229026Y-90597704D01*
X103237056Y-90545417D01*
X103245100Y-90493171D01*
X103253154Y-90440986D01*
X103261222Y-90388843D01*
X103269301Y-90336761D01*
X103277394Y-90284720D01*
X103285497Y-90232740D01*
X103293615Y-90180802D01*
X103301743Y-90128924D01*
X103309885Y-90077088D01*
X103318037Y-90025312D01*
X103326204Y-89973578D01*
X103334381Y-89921904D01*
X103342571Y-89870272D01*
X103350773Y-89818699D01*
X103358988Y-89767168D01*
X103367214Y-89715697D01*
X103375453Y-89664268D01*
X103383703Y-89612898D01*
X103391967Y-89561570D01*
X103400241Y-89510301D01*
X103408529Y-89459074D01*
X103416827Y-89407907D01*
X103425140Y-89356780D01*
X103433462Y-89305714D01*
X103441798Y-89254688D01*
X103450145Y-89203722D01*
X103458505Y-89152797D01*
X103466876Y-89101931D01*
X103475261Y-89051107D01*
X103483655Y-89000341D01*
X103492064Y-88949617D01*
X103500482Y-88898951D01*
X103508915Y-88848327D01*
X103517357Y-88797761D01*
X103525814Y-88747237D01*
X103534280Y-88696771D01*
X103542760Y-88646346D01*
X103551251Y-88595980D01*
X103559754Y-88545655D01*
X103568269Y-88495388D01*
X103576796Y-88445162D01*
X103585334Y-88394995D01*
X103593885Y-88344868D01*
X103602447Y-88294800D01*
X103611022Y-88244772D01*
X103619607Y-88194803D01*
X103628206Y-88144874D01*
X103636814Y-88095003D01*
X103645437Y-88045173D01*
X103654069Y-87995401D01*
X103662715Y-87945669D01*
X103671370Y-87895995D01*
X103680040Y-87846362D01*
X103688719Y-87796786D01*
X103697412Y-87747251D01*
X103706114Y-87697774D01*
X103714830Y-87648337D01*
X103723556Y-87598957D01*
X103732296Y-87549618D01*
X103741045Y-87500336D01*
X103749808Y-87451094D01*
X103758580Y-87401910D01*
X103767366Y-87352766D01*
X103776162Y-87303679D01*
X103784971Y-87254632D01*
X103793791Y-87205643D01*
X103802623Y-87156693D01*
X103811465Y-87107800D01*
X103820320Y-87058948D01*
X103829186Y-87010152D01*
X103838064Y-86961396D01*
X103846953Y-86912697D01*
X103855854Y-86864038D01*
X103864766Y-86815436D01*
X103873690Y-86766873D01*
X103882625Y-86718367D01*
X103891572Y-86669901D01*
X103900529Y-86621491D01*
X103909500Y-86573121D01*
X103918480Y-86524807D01*
X103927473Y-86476534D01*
X103936476Y-86428316D01*
X103945492Y-86380137D01*
X103954518Y-86332015D01*
X103963557Y-86283933D01*
X103972605Y-86235906D01*
X103981667Y-86187919D01*
X103990738Y-86139988D01*
X103999822Y-86092097D01*
X104008916Y-86044261D01*
X104018023Y-85996464D01*
X104027140Y-85948723D01*
X104036269Y-85901022D01*
X104045408Y-85853376D01*
X104054560Y-85805769D01*
X104063722Y-85758218D01*
X104072896Y-85710706D01*
X104082080Y-85663250D01*
X104091277Y-85615832D01*
X104100484Y-85568470D01*
X104109703Y-85521147D01*
X104118932Y-85473879D01*
X104128174Y-85426651D01*
X104137425Y-85379477D01*
X104146689Y-85332342D01*
X104155963Y-85285262D01*
X104165249Y-85238221D01*
X104174545Y-85191235D01*
X104183854Y-85144288D01*
X104193172Y-85097396D01*
X104202503Y-85050542D01*
X104211843Y-85003743D01*
X104221196Y-84956983D01*
X104230559Y-84910277D01*
X104239934Y-84863610D01*
X104249318Y-84816997D01*
X104258715Y-84770423D01*
X104268122Y-84723904D01*
X104277541Y-84677423D01*
X104286970Y-84630996D01*
X104296411Y-84584608D01*
X104305862Y-84538273D01*
X104315325Y-84491978D01*
X104324798Y-84445736D01*
X104334283Y-84399533D01*
X104343777Y-84353383D01*
X104353284Y-84307272D01*
X104362800Y-84261215D01*
X104372329Y-84215196D01*
X104381867Y-84169231D01*
X104391418Y-84123304D01*
X104400978Y-84077430D01*
X104410550Y-84031595D01*
X104420132Y-83985813D01*
X104429726Y-83940070D01*
X104439329Y-83894379D01*
X104448945Y-83848727D01*
X104458570Y-83803128D01*
X104468207Y-83757568D01*
X104477854Y-83712060D01*
X104487513Y-83666590D01*
X104497181Y-83621174D01*
X104506861Y-83575795D01*
X104516551Y-83530469D01*
X104526253Y-83485181D01*
X104535964Y-83439946D01*
X104545687Y-83394749D01*
X104555420Y-83349605D01*
X104565165Y-83304498D01*
X104574919Y-83259444D01*
X104584685Y-83214427D01*
X104594460Y-83169464D01*
X104604248Y-83124538D01*
X104614045Y-83079664D01*
X104623854Y-83034828D01*
X104633671Y-82990044D01*
X104643502Y-82945298D01*
X104653341Y-82900604D01*
X104663192Y-82855947D01*
X104673053Y-82811343D01*
X104682925Y-82766776D01*
X104692807Y-82722261D01*
X104702700Y-82677783D01*
X104712603Y-82633358D01*
X104722518Y-82588969D01*
X104732442Y-82544633D01*
X104742377Y-82500334D01*
X104752322Y-82456086D01*
X104762279Y-82411876D01*
X104772245Y-82367717D01*
X104782223Y-82323596D01*
X104792210Y-82279526D01*
X104802208Y-82235493D01*
X104812216Y-82191511D01*
X104822236Y-82147567D01*
X104832264Y-82103674D01*
X104842305Y-82059818D01*
X104852355Y-82016013D01*
X104862416Y-81972245D01*
X104872486Y-81928528D01*
X104882568Y-81884848D01*
X104892659Y-81841219D01*
X104902762Y-81797627D01*
X104912874Y-81754086D01*
X104922998Y-81710582D01*
X104933130Y-81667128D01*
X104943275Y-81623711D01*
X104953428Y-81580345D01*
X104963593Y-81537015D01*
X104973766Y-81493737D01*
X104983952Y-81450494D01*
X104994146Y-81407303D01*
X105004353Y-81364148D01*
X105014567Y-81321043D01*
X105024794Y-81277975D01*
X105035029Y-81234957D01*
X105045277Y-81191975D01*
X105055532Y-81149044D01*
X105065800Y-81106149D01*
X105076076Y-81063304D01*
X105086364Y-81020496D01*
X105096661Y-80977738D01*
X105106969Y-80935016D01*
X105117286Y-80892343D01*
X105127615Y-80849708D01*
X105137953Y-80807121D01*
X105148302Y-80764572D01*
X105158659Y-80722071D01*
X105169029Y-80679607D01*
X105179406Y-80637193D01*
X105189796Y-80594815D01*
X105200194Y-80552486D01*
X105210604Y-80510193D01*
X105221022Y-80467950D01*
X105231452Y-80425742D01*
X105241890Y-80383584D01*
X105252340Y-80341462D01*
X105262799Y-80299389D01*
X105273269Y-80257352D01*
X105283747Y-80215364D01*
X105294237Y-80173412D01*
X105304736Y-80131509D01*
X105315246Y-80089642D01*
X105325765Y-80047823D01*
X105336295Y-80006041D01*
X105346833Y-79964307D01*
X105357383Y-79922609D01*
X105367942Y-79880959D01*
X105378511Y-79839346D01*
X105389090Y-79797780D01*
X105399680Y-79756251D01*
X105410278Y-79714770D01*
X105420887Y-79673324D01*
X105431505Y-79631927D01*
X105442135Y-79590565D01*
X105452772Y-79549252D01*
X105463422Y-79507974D01*
X105474079Y-79466744D01*
X105484748Y-79425550D01*
X105495425Y-79384404D01*
X105506114Y-79343293D01*
X105516810Y-79302230D01*
X105527519Y-79261203D01*
X105538235Y-79220223D01*
X105548963Y-79179279D01*
X105559699Y-79138382D01*
X105570446Y-79097521D01*
X105581202Y-79056707D01*
X105591969Y-79015928D01*
X105602744Y-78975197D01*
X105613531Y-78934502D01*
X105624325Y-78893853D01*
X105635131Y-78853240D01*
X105645945Y-78812674D01*
X105656771Y-78772143D01*
X105667604Y-78731660D01*
X105678449Y-78691211D01*
X105689302Y-78650810D01*
X105700166Y-78610443D01*
X105711039Y-78570124D01*
X105721922Y-78529840D01*
X105732814Y-78489602D01*
X105743716Y-78449400D01*
X105754627Y-78409244D01*
X105765549Y-78369123D01*
X105776480Y-78329049D01*
X105787421Y-78289009D01*
X105798370Y-78249017D01*
X105809331Y-78209058D01*
X105820299Y-78169147D01*
X105831279Y-78129270D01*
X105842267Y-78089440D01*
X105853266Y-78049644D01*
X105864273Y-78009895D01*
X105875291Y-77970180D01*
X105886316Y-77930512D01*
X105897354Y-77890878D01*
X105908398Y-77851290D01*
X105919455Y-77811737D01*
X105930519Y-77772230D01*
X105941594Y-77732757D01*
X105952677Y-77693330D01*
X105963771Y-77653938D01*
X105974873Y-77614591D01*
X105985986Y-77575279D01*
X105997106Y-77536013D01*
X106008238Y-77496781D01*
X106019378Y-77457594D01*
X106030529Y-77418442D01*
X106041688Y-77379336D01*
X106052857Y-77340263D01*
X106064035Y-77301236D01*
X106075223Y-77262244D01*
X106086419Y-77223296D01*
X106097627Y-77184383D01*
X106108842Y-77145515D01*
X106120068Y-77106682D01*
X106131301Y-77067893D01*
X106142546Y-77029138D01*
X106153798Y-76990429D01*
X106165062Y-76951753D01*
X106176333Y-76913123D01*
X106187615Y-76874526D01*
X106198905Y-76835975D01*
X106210205Y-76797457D01*
X106221514Y-76758984D01*
X106232833Y-76720545D01*
X106244160Y-76682150D01*
X106255498Y-76643790D01*
X106266843Y-76605474D01*
X106278199Y-76567191D01*
X106289563Y-76528954D01*
X106300938Y-76490750D01*
X106312321Y-76452590D01*
X106323714Y-76414464D01*
X106335115Y-76376383D01*
X106346527Y-76338335D01*
X106357946Y-76300331D01*
X106369376Y-76262361D01*
X106380814Y-76224435D01*
X106392262Y-76186542D01*
X106403718Y-76148694D01*
X106415185Y-76110879D01*
X106426659Y-76073108D01*
X106438145Y-76035370D01*
X106449637Y-75997676D01*
X106461141Y-75960016D01*
X106472652Y-75922399D01*
X106484173Y-75884816D01*
X106495703Y-75847276D01*
X106507243Y-75809770D01*
X106518790Y-75772307D01*
X106530348Y-75734878D01*
X106541914Y-75697492D01*
X106553490Y-75660139D01*
X106565074Y-75622830D01*
X106576668Y-75585553D01*
X106588270Y-75548320D01*
X106599882Y-75511120D01*
X106611502Y-75473964D01*
X106623133Y-75436840D01*
X106634771Y-75399760D01*
X106646420Y-75362712D01*
X106658076Y-75325708D01*
X106669742Y-75288736D01*
X106681416Y-75251808D01*
X106693101Y-75214912D01*
X106704793Y-75178059D01*
X106716496Y-75141239D01*
X106728206Y-75104462D01*
X106739926Y-75067718D01*
X106751654Y-75031016D01*
X106763392Y-74994347D01*
X106775138Y-74957721D01*
X106786895Y-74921127D01*
X106798658Y-74884576D01*
X106810432Y-74848057D01*
X106822214Y-74811581D01*
X106834006Y-74775138D01*
X106845805Y-74738737D01*
X106857615Y-74702368D01*
X106869432Y-74666042D01*
X106881259Y-74629748D01*
X106893094Y-74593496D01*
X106904939Y-74557277D01*
X106916792Y-74521100D01*
X106928655Y-74484955D01*
X106940525Y-74448853D01*
X106952406Y-74412782D01*
X106964294Y-74376754D01*
X106976192Y-74340757D01*
X106988097Y-74304803D01*
X107000013Y-74268881D01*
X107011936Y-74233000D01*
X107023870Y-74197152D01*
X107035811Y-74161346D01*
X107047762Y-74125571D01*
X107059720Y-74089838D01*
X107071689Y-74054138D01*
X107083665Y-74018478D01*
X107095651Y-73982851D01*
X107107644Y-73947265D01*
X107119648Y-73911711D01*
X107131658Y-73876199D01*
X107143679Y-73840718D01*
X107155708Y-73805279D01*
X107167746Y-73769872D01*
X107179792Y-73734505D01*
X107191848Y-73699171D01*
X107203911Y-73663877D01*
X107215984Y-73628616D01*
X107228065Y-73593395D01*
X107240155Y-73558206D01*
X107252253Y-73523058D01*
X107264361Y-73487942D01*
X107276476Y-73452866D01*
X107288602Y-73417823D01*
X107300734Y-73382819D01*
X107312877Y-73347848D01*
X107325026Y-73312917D01*
X107337186Y-73278018D01*
X107349353Y-73243159D01*
X107361530Y-73208332D01*
X107373714Y-73173545D01*
X107385908Y-73138789D01*
X107398110Y-73104074D01*
X107410321Y-73069391D01*
X107422540Y-73034748D01*
X107434768Y-73000136D01*
X107447004Y-72965564D01*
X107459250Y-72931024D01*
X107471503Y-72896523D01*
X107483765Y-72862054D01*
X107496035Y-72827625D01*
X107508315Y-72793228D01*
X107520602Y-72758870D01*
X107532899Y-72724543D01*
X107545203Y-72690257D01*
X107557517Y-72656001D01*
X107569838Y-72621785D01*
X107582169Y-72587600D01*
X107594507Y-72553455D01*
X107606855Y-72519341D01*
X107619210Y-72485267D01*
X107631575Y-72451224D01*
X107643947Y-72417220D01*
X107656329Y-72383247D01*
X107668718Y-72349314D01*
X107681117Y-72315411D01*
X107693522Y-72281548D01*
X107705938Y-72247716D01*
X107718361Y-72213923D01*
X107730793Y-72180160D01*
X107743233Y-72146437D01*
X107755682Y-72112745D01*
X107768138Y-72079092D01*
X107780605Y-72045469D01*
X107793078Y-72011886D01*
X107805561Y-71978333D01*
X107818051Y-71944819D01*
X107830550Y-71911336D01*
X107843057Y-71877892D01*
X107855574Y-71844478D01*
X107868097Y-71811103D01*
X107880630Y-71777759D01*
X107893170Y-71744453D01*
X107905720Y-71711178D01*
X107918277Y-71677941D01*
X107930844Y-71644735D01*
X107943417Y-71611568D01*
X107956001Y-71578430D01*
X107968591Y-71545332D01*
X107981191Y-71512263D01*
X107993798Y-71479233D01*
X108006414Y-71446233D01*
X108019038Y-71413272D01*
X108031671Y-71380341D01*
X108044311Y-71347448D01*
X108056961Y-71314585D01*
X108069617Y-71281760D01*
X108082283Y-71248966D01*
X108094956Y-71216209D01*
X108107639Y-71183483D01*
X108120329Y-71150794D01*
X108133028Y-71118136D01*
X108145734Y-71085516D01*
X108158450Y-71052925D01*
X108171173Y-71020373D01*
X108183905Y-70987850D01*
X108196644Y-70955365D01*
X108209393Y-70922910D01*
X108222148Y-70890493D01*
X108234913Y-70858106D01*
X108247685Y-70825756D01*
X108260467Y-70793436D01*
X108273255Y-70761153D01*
X108286053Y-70728901D01*
X108298858Y-70696685D01*
X108311672Y-70664500D01*
X108324493Y-70632351D01*
X108337324Y-70600233D01*
X108350161Y-70568152D01*
X108363008Y-70536100D01*
X108375862Y-70504085D01*
X108388725Y-70472101D01*
X108401595Y-70440153D01*
X108414474Y-70408235D01*
X108427361Y-70376353D01*
X108440256Y-70344502D01*
X108453159Y-70312687D01*
X108466071Y-70280902D01*
X108478990Y-70249153D01*
X108491918Y-70217435D01*
X108504853Y-70185752D01*
X108517798Y-70154100D01*
X108530749Y-70122483D01*
X108543709Y-70090897D01*
X108556677Y-70059347D01*
X108569654Y-70027826D01*
X108582637Y-69996341D01*
X108595630Y-69964886D01*
X108608630Y-69933468D01*
X108621639Y-69902078D01*
X108634655Y-69870725D01*
X108647680Y-69839402D01*
X108660712Y-69808114D01*
X108673753Y-69776856D01*
X108686801Y-69745633D01*
X108699858Y-69714440D01*
X108712922Y-69683283D01*
X108725996Y-69652155D01*
X108739076Y-69621063D01*
X108752165Y-69590001D01*
X108765261Y-69558974D01*
X108778367Y-69527976D01*
X108791479Y-69497014D01*
X108804601Y-69466081D01*
X108817729Y-69435183D01*
X108830866Y-69404315D01*
X108844010Y-69373482D01*
X108857164Y-69342678D01*
X108870324Y-69311910D01*
X108883493Y-69281171D01*
X108896669Y-69250467D01*
X108909855Y-69219792D01*
X108923047Y-69189152D01*
X108936248Y-69158541D01*
X108949456Y-69127966D01*
X108962673Y-69097419D01*
X108975897Y-69066908D01*
X108989130Y-69036425D01*
X109002369Y-69005977D01*
X109015618Y-68975558D01*
X109028874Y-68945175D01*
X109042138Y-68914819D01*
X109055410Y-68884499D01*
X109068690Y-68854208D01*
X109081977Y-68823951D01*
X109095274Y-68793723D01*
X109108577Y-68763530D01*
X109121889Y-68733365D01*
X109135208Y-68703235D01*
X109148536Y-68673134D01*
X109161870Y-68643067D01*
X109175214Y-68613028D01*
X109188564Y-68583025D01*
X109201924Y-68553049D01*
X109215290Y-68523109D01*
X109228665Y-68493196D01*
X109242047Y-68463318D01*
X109255438Y-68433469D01*
X109268836Y-68403653D01*
X109282242Y-68373866D01*
X109295655Y-68344114D01*
X109309078Y-68314389D01*
X109322507Y-68284699D01*
X109335945Y-68255037D01*
X109349389Y-68225409D01*
X109362843Y-68195809D01*
X109376303Y-68166244D01*
X109389773Y-68136706D01*
X109403249Y-68107202D01*
X109416734Y-68077727D01*
X109430225Y-68048285D01*
X109443726Y-68018872D01*
X109457233Y-67989492D01*
X109470749Y-67960141D01*
X109484272Y-67930823D01*
X109497804Y-67901533D01*
X109511342Y-67872276D01*
X109524890Y-67843048D01*
X109538443Y-67813853D01*
X109552006Y-67784687D01*
X109565576Y-67755553D01*
X109579154Y-67726448D01*
X109592739Y-67697376D01*
X109606334Y-67668331D01*
X109619934Y-67639321D01*
X109633544Y-67610337D01*
X109647160Y-67581388D01*
X109660785Y-67552466D01*
X109674416Y-67523577D01*
X109688057Y-67494716D01*
X109701704Y-67465888D01*
X109715360Y-67437087D01*
X109729023Y-67408320D01*
X109742694Y-67379580D01*
X109756372Y-67350874D01*
X109770059Y-67322194D01*
X109783753Y-67293548D01*
X109797455Y-67264930D01*
X109811164Y-67236344D01*
X109824882Y-67207785D01*
X109838607Y-67179260D01*
X109852340Y-67150762D01*
X109866080Y-67122296D01*
X109879829Y-67093858D01*
X109893584Y-67065453D01*
X109907348Y-67037075D01*
X109921119Y-67008729D01*
X109934898Y-66980411D01*
X109948684Y-66952126D01*
X109962479Y-66923867D01*
X109976280Y-66895641D01*
X109990091Y-66867443D01*
X110003907Y-66839276D01*
X110017733Y-66811137D01*
X110031565Y-66783030D01*
X110045406Y-66754950D01*
X110059254Y-66726903D01*
X110073110Y-66698882D01*
X110086973Y-66670894D01*
X110100844Y-66642933D01*
X110114722Y-66615004D01*
X110128609Y-66587102D01*
X110142503Y-66559231D01*
X110156405Y-66531388D01*
X110170314Y-66503577D01*
X110184231Y-66475793D01*
X110198155Y-66448040D01*
X110212088Y-66420315D01*
X110226027Y-66392621D01*
X110239976Y-66364954D01*
X110253930Y-66337319D01*
X110267894Y-66309711D01*
X110281863Y-66282134D01*
X110295842Y-66254584D01*
X110309827Y-66227065D01*
X110323821Y-66199574D01*
X110337821Y-66172114D01*
X110351830Y-66144680D01*
X110365846Y-66117278D01*
X110379870Y-66089903D01*
X110393901Y-66062559D01*
X110407940Y-66035242D01*
X110421987Y-66007955D01*
X110436041Y-65980696D01*
X110450102Y-65953468D01*
X110464172Y-65926266D01*
X110478249Y-65899095D01*
X110492334Y-65871951D01*
X110506426Y-65844838D01*
X110520526Y-65817752D01*
X110534633Y-65790696D01*
X110548748Y-65763667D01*
X110562870Y-65736669D01*
X110577001Y-65709697D01*
X110591138Y-65682756D01*
X110605284Y-65655842D01*
X110619436Y-65628958D01*
X110633597Y-65602101D01*
X110647764Y-65575274D01*
X110661940Y-65548473D01*
X110676123Y-65521703D01*
X110690314Y-65494960D01*
X110704512Y-65468247D01*
X110718718Y-65441560D01*
X110732931Y-65414904D01*
X110747153Y-65388274D01*
X110761381Y-65361674D01*
X110775617Y-65335101D01*
X110789860Y-65308557D01*
X110804112Y-65282040D01*
X110818370Y-65255554D01*
X110832637Y-65229093D01*
X110846910Y-65202662D01*
X110861192Y-65176258D01*
X110875481Y-65149883D01*
X110889778Y-65123535D01*
X110904081Y-65097217D01*
X110918393Y-65070925D01*
X110932712Y-65044662D01*
X110947039Y-65018426D01*
X110961372Y-64992219D01*
X110975715Y-64966039D01*
X110990063Y-64939888D01*
X111004421Y-64913763D01*
X111018784Y-64887668D01*
X111033157Y-64861599D01*
X111047536Y-64835559D01*
X111061923Y-64809546D01*
X111076317Y-64783562D01*
X111090719Y-64757603D01*
X111105128Y-64731675D01*
X111119546Y-64705772D01*
X111133970Y-64679898D01*
X111148402Y-64654050D01*
X111162841Y-64628232D01*
X111177289Y-64602439D01*
X111191743Y-64576675D01*
X111206206Y-64550938D01*
X111220675Y-64525229D01*
X111235152Y-64499546D01*
X111249637Y-64473892D01*
X111264129Y-64448264D01*
X111278628Y-64422665D01*
X111293136Y-64397092D01*
X111307650Y-64371547D01*
X111322173Y-64346028D01*
X111336702Y-64320538D01*
X111351240Y-64295074D01*
X111365784Y-64269638D01*
X111380337Y-64244228D01*
X111394896Y-64218847D01*
X111409463Y-64193491D01*
X111424038Y-64168164D01*
X111438620Y-64142862D01*
X111453210Y-64117589D01*
X111467807Y-64092342D01*
X111482412Y-64067122D01*
X111497024Y-64041929D01*
X111511644Y-64016764D01*
X111526271Y-63991624D01*
X111540905Y-63966512D01*
X111555548Y-63941426D01*
X111570197Y-63916368D01*
X111584855Y-63891336D01*
X111599519Y-63866332D01*
X111614192Y-63841353D01*
X111628871Y-63816402D01*
X111643559Y-63791476D01*
X111658253Y-63766579D01*
X111672955Y-63741707D01*
X111687665Y-63716862D01*
X111702382Y-63692044D01*
X111717106Y-63667252D01*
X111731839Y-63642487D01*
X111746578Y-63617749D01*
X111761325Y-63593036D01*
X111776080Y-63568351D01*
X111790842Y-63543691D01*
X111805611Y-63519059D01*
X111820389Y-63494452D01*
X111835173Y-63469872D01*
X111849965Y-63445318D01*
X111864764Y-63420791D01*
X111879572Y-63396290D01*
X111894386Y-63371815D01*
X111909208Y-63347366D01*
X111924037Y-63322944D01*
X111938875Y-63298548D01*
X111953719Y-63274178D01*
X111968571Y-63249834D01*
X111983430Y-63225517D01*
X111998297Y-63201225D01*
X112013171Y-63176959D01*
X112028053Y-63152719D01*
X112042942Y-63128506D01*
X112057840Y-63104318D01*
X112072744Y-63080157D01*
X112087656Y-63056021D01*
X112102575Y-63031912D01*
X112117502Y-63007828D01*
X112132436Y-62983770D01*
X112147378Y-62959738D01*
X112162327Y-62935732D01*
X112177284Y-62911751D01*
X112192248Y-62887797D01*
X112207220Y-62863868D01*
X112222199Y-62839965D01*
X112237186Y-62816087D01*
X112252180Y-62792236D01*
X112267182Y-62768409D01*
X112282191Y-62744609D01*
X112297208Y-62720834D01*
X112312232Y-62697085D01*
X112327264Y-62673361D01*
X112342302Y-62649663D01*
X112357349Y-62625990D01*
X112372403Y-62602343D01*
X112387465Y-62578720D01*
X112402534Y-62555124D01*
X112417611Y-62531553D01*
X112432695Y-62508008D01*
X112447787Y-62484487D01*
X112462886Y-62460993D01*
X112477993Y-62437523D01*
X112493106Y-62414079D01*
X112508228Y-62390660D01*
X112523357Y-62367266D01*
X112538494Y-62343897D01*
X112553638Y-62320554D01*
X112568790Y-62297236D01*
X112583949Y-62273943D01*
X112599116Y-62250675D01*
X112614290Y-62227432D01*
X112629472Y-62204214D01*
X112644661Y-62181022D01*
X112659858Y-62157854D01*
X112675062Y-62134711D01*
X112690274Y-62111593D01*
X112705493Y-62088501D01*
X112720720Y-62065433D01*
X112735954Y-62042390D01*
X112751196Y-62019372D01*
X112766445Y-61996379D01*
X112781702Y-61973410D01*
X112796966Y-61950467D01*
X112812238Y-61927548D01*
X112827517Y-61904655D01*
X112842805Y-61881785D01*
X112858099Y-61858941D01*
X112873401Y-61836121D01*
X112888710Y-61813326D01*
X112904028Y-61790555D01*
X112919352Y-61767810D01*
X112934684Y-61745088D01*
X112950024Y-61722392D01*
X112965371Y-61699719D01*
X112980726Y-61677072D01*
X112996088Y-61654449D01*
X113011458Y-61631851D01*
X113026835Y-61609276D01*
X113042220Y-61586727D01*
X113057613Y-61564201D01*
X113073013Y-61541701D01*
X113088420Y-61519224D01*
X113103835Y-61496772D01*
X113119258Y-61474344D01*
X113134688Y-61451941D01*
X113150126Y-61429561D01*
X113165571Y-61407207D01*
X113181024Y-61384876D01*
X113196484Y-61362569D01*
X113211952Y-61340287D01*
X113227428Y-61318029D01*
X113242911Y-61295795D01*
X113258402Y-61273585D01*
X113273900Y-61251399D01*
X113289406Y-61229237D01*
X113304919Y-61207100D01*
X113320440Y-61184986D01*
X113335969Y-61162896D01*
X113351505Y-61140831D01*
X113367049Y-61118789D01*
X113382600Y-61096771D01*
X113398159Y-61074777D01*
X113413725Y-61052808D01*
X113429299Y-61030861D01*
X113444881Y-61008939D01*
X113460470Y-60987041D01*
X113476067Y-60965166D01*
X113491672Y-60943316D01*
X113507284Y-60921489D01*
X113522903Y-60899685D01*
X113538531Y-60877906D01*
X113554166Y-60856150D01*
X113569808Y-60834417D01*
X113585458Y-60812709D01*
X113601116Y-60791024D01*
X113616781Y-60769363D01*
X113632454Y-60747725D01*
X113648135Y-60726111D01*
X113663823Y-60704520D01*
X113679519Y-60682953D01*
X113695222Y-60661409D01*
X113710934Y-60639889D01*
X113726652Y-60618392D01*
X113742379Y-60596919D01*
X113758113Y-60575469D01*
X113773854Y-60554042D01*
X113789604Y-60532639D01*
X113805361Y-60511259D01*
X113821125Y-60489903D01*
X113836898Y-60468570D01*
X113852678Y-60447260D01*
X113868465Y-60425973D01*
X113884260Y-60404709D01*
X113900063Y-60383469D01*
X113915874Y-60362252D01*
X113931692Y-60341058D01*
X113947518Y-60319887D01*
X113963352Y-60298740D01*
X113979193Y-60277615D01*
X113995042Y-60256514D01*
X114010899Y-60235435D01*
X114026763Y-60214380D01*
X114042635Y-60193348D01*
X114058515Y-60172338D01*
X114074403Y-60151352D01*
X114090298Y-60130389D01*
X114106201Y-60109448D01*
X114122111Y-60088530D01*
X114138030Y-60067636D01*
X114153956Y-60046764D01*
X114169889Y-60025915D01*
X114185831Y-60005089D01*
X114201780Y-59984285D01*
X114217737Y-59963505D01*
X114233702Y-59942747D01*
X114249674Y-59922012D01*
X114265654Y-59901299D01*
X114281642Y-59880610D01*
X114297638Y-59859942D01*
X114313641Y-59839298D01*
X114329652Y-59818676D01*
X114345671Y-59798077D01*
X114361698Y-59777500D01*
X114377732Y-59756947D01*
X114393775Y-59736415D01*
X114409824Y-59715906D01*
X114425882Y-59695420D01*
X114441948Y-59674956D01*
X114458021Y-59654514D01*
X114474102Y-59634096D01*
X114490191Y-59613699D01*
X114506288Y-59593325D01*
X114522392Y-59572973D01*
X114538504Y-59552644D01*
X114554625Y-59532336D01*
X114570752Y-59512052D01*
X114586888Y-59491789D01*
X114603032Y-59471549D01*
X114619183Y-59451331D01*
X114635342Y-59431135D01*
X114651509Y-59410961D01*
X114667684Y-59390810D01*
X114683867Y-59370681D01*
X114700057Y-59350574D01*
X114716256Y-59330489D01*
X114732462Y-59310427D01*
X114748676Y-59290386D01*
X114764898Y-59270367D01*
X114781128Y-59250371D01*
X114797365Y-59230396D01*
X114813611Y-59210444D01*
X114829864Y-59190513D01*
X114846126Y-59170605D01*
X114862395Y-59150718D01*
X114878672Y-59130853D01*
X114894957Y-59111011D01*
X114911250Y-59091190D01*
X114927551Y-59071391D01*
X114943860Y-59051614D01*
X114960176Y-59031859D01*
X114976501Y-59012125D01*
X114992833Y-58992414D01*
X115009174Y-58972723D01*
X115025522Y-58953056D01*
X115041878Y-58933409D01*
X115058242Y-58913784D01*
X115074615Y-58894181D01*
X115090994Y-58874600D01*
X115107383Y-58855040D01*
X115123779Y-58835502D01*
X115140183Y-58815985D01*
X115156594Y-58796491D01*
X115173015Y-58777017D01*
X115189442Y-58757566D01*
X115205879Y-58738135D01*
X115222322Y-58718727D01*
X115238774Y-58699339D01*
X115255234Y-58679974D01*
X115271702Y-58660629D01*
X115288178Y-58641307D01*
X115304662Y-58622005D01*
X115321153Y-58602725D01*
X115337654Y-58583466D01*
X115354161Y-58564229D01*
X115370678Y-58545013D01*
X115387201Y-58525819D01*
X115403734Y-58506645D01*
X115420274Y-58487493D01*
X115436822Y-58468362D01*
X115453378Y-58449253D01*
X115469943Y-58430164D01*
X115486515Y-58411098D01*
X115503096Y-58392051D01*
X115519684Y-58373027D01*
X115536281Y-58354023D01*
X115552885Y-58335041D01*
X115569499Y-58316079D01*
X115586119Y-58297139D01*
X115602749Y-58278219D01*
X115619385Y-58259321D01*
X115636031Y-58240444D01*
X115652684Y-58221588D01*
X115669346Y-58202752D01*
X115686016Y-58183939D01*
X115702694Y-58165145D01*
X115719379Y-58146373D01*
X115736074Y-58127621D01*
X115752776Y-58108891D01*
X115769487Y-58090181D01*
X115786205Y-58071493D01*
X115802933Y-58052824D01*
X115819667Y-58034178D01*
X115836411Y-58015551D01*
X115853162Y-57996946D01*
X115869922Y-57978361D01*
X115886689Y-57959797D01*
X115903466Y-57941253D01*
X115920250Y-57922731D01*
X115937043Y-57904229D01*
X115953843Y-57885748D01*
X115970653Y-57867287D01*
X115987469Y-57848848D01*
X116004295Y-57830428D01*
X116021129Y-57812030D01*
X116037971Y-57793651D01*
X116054821Y-57775294D01*
X116071680Y-57756957D01*
X116088546Y-57738641D01*
X116105422Y-57720344D01*
X116122305Y-57702070D01*
X116139197Y-57683814D01*
X116156097Y-57665580D01*
X116173006Y-57647365D01*
X116189922Y-57629172D01*
X116206848Y-57610998D01*
X116223781Y-57592846D01*
X116240723Y-57574713D01*
X116257672Y-57556602D01*
X116274632Y-57538509D01*
X116291598Y-57520438D01*
X116308574Y-57502386D01*
X116325557Y-57484356D01*
X116342549Y-57466345D01*
X116359549Y-57448355D01*
X116376558Y-57430384D01*
X116393575Y-57412435D01*
X116410601Y-57394504D01*
X116427634Y-57376595D01*
X116444677Y-57358705D01*
X116461728Y-57340836D01*
X116478788Y-57322986D01*
X116495855Y-57305158D01*
X116512932Y-57287348D01*
X116530016Y-57269559D01*
X116547109Y-57251790D01*
X116564210Y-57234041D01*
X116581321Y-57216312D01*
X116598439Y-57198603D01*
X116615567Y-57180914D01*
X116632702Y-57163245D01*
X116649847Y-57145595D01*
X116666999Y-57127967D01*
X116684160Y-57110357D01*
X116701329Y-57092768D01*
X116718508Y-57075198D01*
X116735694Y-57057649D01*
X116752891Y-57040118D01*
X116770094Y-57022609D01*
X116787307Y-57005118D01*
X116804527Y-56987648D01*
X116821758Y-56970197D01*
X116838995Y-56952767D01*
X116856243Y-56935355D01*
X116873498Y-56917964D01*
X116890762Y-56900592D01*
X116908034Y-56883240D01*
X116925317Y-56865907D01*
X116942606Y-56848595D01*
X116959905Y-56831301D01*
X116977212Y-56814028D01*
X116994529Y-56796773D01*
X117011852Y-56779540D01*
X117029187Y-56762324D01*
X117046528Y-56745130D01*
X117081238Y-56710798D01*
X117115983Y-56676544D01*
X117150763Y-56642368D01*
X117185578Y-56608269D01*
X117220428Y-56574248D01*
X117255313Y-56540305D01*
X117290233Y-56506439D01*
X117325189Y-56472650D01*
X117360180Y-56438938D01*
X117395206Y-56405303D01*
X117430268Y-56371745D01*
X117465365Y-56338264D01*
X117500498Y-56304859D01*
X117535667Y-56271530D01*
X117570871Y-56238278D01*
X117606112Y-56205102D01*
X117641388Y-56172002D01*
X117676700Y-56138978D01*
X117712048Y-56106029D01*
X117747432Y-56073157D01*
X117782853Y-56040360D01*
X117818309Y-56007638D01*
X117853802Y-55974991D01*
X117889332Y-55942420D01*
X117924898Y-55909923D01*
X117960500Y-55877502D01*
X117996139Y-55845155D01*
X118031815Y-55812883D01*
X118067528Y-55780685D01*
X118103278Y-55748562D01*
X118139064Y-55716513D01*
X118174888Y-55684539D01*
X118210749Y-55652638D01*
X118246646Y-55620811D01*
X118282582Y-55589058D01*
X118318554Y-55557379D01*
X118354564Y-55525773D01*
X118390612Y-55494241D01*
X118426697Y-55462782D01*
X118462820Y-55431396D01*
X118498981Y-55400084D01*
X118535179Y-55368844D01*
X118571416Y-55337677D01*
X118607690Y-55306583D01*
X118644003Y-55275562D01*
X118680354Y-55244613D01*
X118716743Y-55213736D01*
X118753171Y-55182932D01*
X118789637Y-55152200D01*
X118826142Y-55121540D01*
X118862685Y-55090952D01*
X118899267Y-55060435D01*
X118935888Y-55029991D01*
X118972548Y-54999618D01*
X119009247Y-54969316D01*
X119045986Y-54939086D01*
X119082763Y-54908928D01*
X119119580Y-54878840D01*
X119156436Y-54848823D01*
X119193331Y-54818878D01*
X119230267Y-54789003D01*
X119267241Y-54759199D01*
X119304256Y-54729465D01*
X119341311Y-54699802D01*
X119378405Y-54670210D01*
X119415540Y-54640688D01*
X119452715Y-54611236D01*
X119489930Y-54581854D01*
X119527186Y-54552542D01*
X119564482Y-54523299D01*
X119601819Y-54494127D01*
X119639196Y-54465024D01*
X119676614Y-54435991D01*
X119714074Y-54407028D01*
X119751574Y-54378133D01*
X119789115Y-54349308D01*
X119826698Y-54320552D01*
X119864321Y-54291866D01*
X119901987Y-54263248D01*
X119939694Y-54234699D01*
X119977442Y-54206218D01*
X120015232Y-54177807D01*
X120053065Y-54149464D01*
X120090939Y-54121189D01*
X120128855Y-54092983D01*
X120166814Y-54064845D01*
X120204814Y-54036775D01*
X120242858Y-54008773D01*
X120280943Y-53980839D01*
X120319072Y-53952974D01*
X120357243Y-53925175D01*
X120395457Y-53897445D01*
X120433714Y-53869782D01*
X120472014Y-53842187D01*
X120510358Y-53814659D01*
X120548745Y-53787198D01*
X120587175Y-53759804D01*
X120625649Y-53732478D01*
X120664167Y-53705219D01*
X120702728Y-53678026D01*
X120741334Y-53650901D01*
X120779983Y-53623842D01*
X120818677Y-53596849D01*
X120857415Y-53569924D01*
X120896198Y-53543065D01*
X120935025Y-53516272D01*
X120973896Y-53489546D01*
X121012813Y-53462885D01*
X121051775Y-53436291D01*
X121090781Y-53409763D01*
X121129833Y-53383301D01*
X121168931Y-53356905D01*
X121208073Y-53330574D01*
X121247262Y-53304309D01*
X121286496Y-53278110D01*
X121325776Y-53251977D01*
X121365102Y-53225908D01*
X121404474Y-53199905D01*
X121443892Y-53173968D01*
X121483357Y-53148095D01*
X121522868Y-53122288D01*
X121562426Y-53096546D01*
X121602031Y-53070868D01*
X121641683Y-53045256D01*
X121681381Y-53019708D01*
X121721127Y-52994225D01*
X121760921Y-52968807D01*
X121800762Y-52943453D01*
X121840650Y-52918163D01*
X121880587Y-52892938D01*
X121920571Y-52867777D01*
X121960603Y-52842681D01*
X122000684Y-52817648D01*
X122040813Y-52792680D01*
X122080990Y-52767776D01*
X122121217Y-52742935D01*
X122161492Y-52718159D01*
X122201816Y-52693446D01*
X122242189Y-52668797D01*
X122282611Y-52644211D01*
X122323083Y-52619689D01*
X122363604Y-52595230D01*
X122404175Y-52570835D01*
X122444796Y-52546503D01*
X122485467Y-52522235D01*
X122526188Y-52498029D01*
X122566960Y-52473887D01*
X122607782Y-52449807D01*
X122648654Y-52425791D01*
X122689578Y-52401837D01*
X122730552Y-52377947D01*
X122771578Y-52354119D01*
X122812655Y-52330353D01*
X122853783Y-52306651D01*
X122894963Y-52283010D01*
X122936195Y-52259433D01*
X122977478Y-52235917D01*
X123018814Y-52212464D01*
X123060202Y-52189074D01*
X123101643Y-52165745D01*
X123143136Y-52142479D01*
X123184682Y-52119275D01*
X123226281Y-52096132D01*
X123267933Y-52073052D01*
X123309639Y-52050033D01*
X123351398Y-52027077D01*
X123393210Y-52004182D01*
X123435077Y-51981348D01*
X123476997Y-51958577D01*
X123518972Y-51935867D01*
X123561001Y-51913218D01*
X123603084Y-51890631D01*
X123645222Y-51868105D01*
X123687416Y-51845641D01*
X123729664Y-51823238D01*
X123771968Y-51800895D01*
X123814327Y-51778615D01*
X123856741Y-51756395D01*
X123899212Y-51734236D01*
X123941738Y-51712138D01*
X123984321Y-51690101D01*
X124026960Y-51668125D01*
X124069656Y-51646210D01*
X124112409Y-51624355D01*
X124155218Y-51602561D01*
X124198085Y-51580828D01*
X124241009Y-51559155D01*
X124283991Y-51537543D01*
X124327030Y-51515991D01*
X124370127Y-51494500D01*
X124413283Y-51473069D01*
X124456497Y-51451698D01*
X124499769Y-51430388D01*
X124543101Y-51409137D01*
X124586491Y-51387947D01*
X124629940Y-51366817D01*
X124673449Y-51345747D01*
X124717018Y-51324737D01*
X124760646Y-51303787D01*
X124804334Y-51282896D01*
X124848083Y-51262066D01*
X124891891Y-51241295D01*
X124935761Y-51220584D01*
X124979692Y-51199933D01*
X125023683Y-51179341D01*
X125067736Y-51158809D01*
X125111850Y-51138337D01*
X125156026Y-51117924D01*
X125200265Y-51097570D01*
X125244565Y-51077276D01*
X125288928Y-51057041D01*
X125333353Y-51036866D01*
X125377841Y-51016749D01*
X125422393Y-50996692D01*
X125467007Y-50976694D01*
X125511686Y-50956756D01*
X125556428Y-50936876D01*
X125601234Y-50917055D01*
X125646104Y-50897294D01*
X125691039Y-50877591D01*
X125736039Y-50857948D01*
X125781103Y-50838363D01*
X125826233Y-50818837D01*
X125871428Y-50799370D01*
X125916689Y-50779961D01*
X125962016Y-50760611D01*
X126007409Y-50741320D01*
X126052869Y-50722088D01*
X126098395Y-50702914D01*
X126143989Y-50683799D01*
X126189649Y-50664742D01*
X126235377Y-50645744D01*
X126281173Y-50626804D01*
X126327037Y-50607922D01*
X126372969Y-50589099D01*
X126418969Y-50570335D01*
X126465038Y-50551628D01*
X126511177Y-50532980D01*
X126557384Y-50514390D01*
X126603661Y-50495858D01*
X126650008Y-50477385D01*
X126696426Y-50458969D01*
X126742913Y-50440612D01*
X126789471Y-50422313D01*
X126836100Y-50404072D01*
X126882801Y-50385888D01*
X126929572Y-50367763D01*
X126976416Y-50349696D01*
X127023332Y-50331686D01*
X127070320Y-50313735D01*
X127117381Y-50295841D01*
X127164514Y-50278005D01*
X127211721Y-50260227D01*
X127259002Y-50242506D01*
X127306356Y-50224843D01*
X127353784Y-50207238D01*
X127401287Y-50189691D01*
X127448864Y-50172201D01*
X127496517Y-50154769D01*
X127544245Y-50137395D01*
X127592048Y-50120078D01*
X127639928Y-50102818D01*
X127687883Y-50085616D01*
X127735916Y-50068472D01*
X127784025Y-50051385D01*
X127832211Y-50034355D01*
X127880475Y-50017383D01*
X127928817Y-50000468D01*
X127977237Y-49983611D01*
X128025736Y-49966810D01*
X128074313Y-49950067D01*
X128122969Y-49933382D01*
X128171706Y-49916753D01*
X128220522Y-49900182D01*
X128269418Y-49883668D01*
X128318394Y-49867212D01*
X128367452Y-49850812D01*
X128416591Y-49834470D01*
X128465811Y-49818184D01*
X128515113Y-49801956D01*
X128564498Y-49785785D01*
X128613965Y-49769671D01*
X128663516Y-49753614D01*
X128713149Y-49737614D01*
X128762867Y-49721671D01*
X128812668Y-49705785D01*
X128862554Y-49689956D01*
X128912525Y-49674184D01*
X128962581Y-49658469D01*
X129012723Y-49642811D01*
X129062951Y-49627210D01*
X129113265Y-49611665D01*
X129163666Y-49596178D01*
X129214154Y-49580747D01*
X129264730Y-49565373D01*
X129315393Y-49550056D01*
X129366145Y-49534796D01*
X129416986Y-49519593D01*
X129467916Y-49504446D01*
X129518935Y-49489356D01*
X129570045Y-49474323D01*
X129621245Y-49459347D01*
X129672536Y-49444427D01*
X129723918Y-49429564D01*
X129775391Y-49414758D01*
X129826957Y-49400009D01*
X129878616Y-49385316D01*
X129930367Y-49370680D01*
X129982212Y-49356100D01*
X130034151Y-49341577D01*
X130086184Y-49327111D01*
X130138312Y-49312701D01*
X130190535Y-49298348D01*
X130242854Y-49284052D01*
X130295269Y-49269812D01*
X130347781Y-49255629D01*
X130400390Y-49241502D01*
X130453096Y-49227432D01*
X130505901Y-49213419D01*
X130558804Y-49199462D01*
X130611806Y-49185562D01*
X130664908Y-49171718D01*
X130718110Y-49157930D01*
X130771412Y-49144200D01*
X130824816Y-49130525D01*
X130878321Y-49116908D01*
X130931928Y-49103346D01*
X130985637Y-49089842D01*
X131039450Y-49076393D01*
X131093367Y-49063002D01*
X131147388Y-49049666D01*
X131201513Y-49036388D01*
X131255744Y-49023165D01*
X131310080Y-49010000D01*
X131364523Y-48996890D01*
X131419073Y-48983838D01*
X131473731Y-48970841D01*
X131528497Y-48957901D01*
X131583371Y-48945018D01*
X131638355Y-48932191D01*
X131693448Y-48919420D01*
X131748652Y-48906706D01*
X131803967Y-48894049D01*
X131859393Y-48881448D01*
X131914932Y-48868903D01*
X131970584Y-48856415D01*
X132026349Y-48843983D01*
X132082229Y-48831608D01*
X132138223Y-48819289D01*
X132194332Y-48807026D01*
X132250558Y-48794820D01*
X132306900Y-48782671D01*
X132363360Y-48770578D01*
X132419938Y-48758541D01*
X132476635Y-48746561D01*
X132533451Y-48734638D01*
X132590387Y-48722771D01*
X132647444Y-48710960D01*
X132704622Y-48699206D01*
X132761923Y-48687508D01*
X132819347Y-48675867D01*
X132876894Y-48664282D01*
X132934566Y-48652754D01*
X132992363Y-48641282D01*
X133050286Y-48629867D01*
X133108336Y-48618508D01*
X133166513Y-48607206D01*
X133224818Y-48595960D01*
X133283252Y-48584771D01*
X133341817Y-48573638D01*
X133400512Y-48562562D01*
X133459338Y-48551543D01*
X133518296Y-48540580D01*
X133577388Y-48529673D01*
X133636614Y-48518823D01*
X133695974Y-48508030D01*
X133755470Y-48497293D01*
X133815103Y-48486613D01*
X133874873Y-48475989D01*
X133934782Y-48465422D01*
X133994829Y-48454912D01*
X134055017Y-48444458D01*
X134115346Y-48434061D01*
X134175817Y-48423720D01*
X134236431Y-48413436D01*
X134297189Y-48403209D01*
X134358092Y-48393038D01*
X134419141Y-48382924D01*
X134480337Y-48372867D01*
X134541680Y-48362867D01*
X134603173Y-48352923D01*
X134664815Y-48343035D01*
X134726609Y-48333205D01*
X134788555Y-48323431D01*
X134850654Y-48313714D01*
X134912907Y-48304054D01*
X134975316Y-48294451D01*
X135037881Y-48284904D01*
X135100604Y-48275414D01*
X135163486Y-48265981D01*
X135226527Y-48256605D01*
X135289730Y-48247285D01*
X135353096Y-48238022D01*
X135416625Y-48228817D01*
X135480319Y-48219668D01*
X135544179Y-48210576D01*
X135608206Y-48201541D01*
X135672402Y-48192562D01*
X135736768Y-48183641D01*
X135801306Y-48174777D01*
X135866016Y-48165969D01*
X135930901Y-48157219D01*
X135995960Y-48148525D01*
X136061197Y-48139889D01*
X136126612Y-48131309D01*
X136192207Y-48122787D01*
X136257983Y-48114321D01*
X136323942Y-48105913D01*
X136390085Y-48097561D01*
X136456415Y-48089267D01*
X136522931Y-48081030D01*
X136589637Y-48072850D01*
X136656533Y-48064727D01*
X136723622Y-48056661D01*
X136790904Y-48048652D01*
X136858382Y-48040701D01*
X136926058Y-48032806D01*
X136993933Y-48024969D01*
X137062009Y-48017189D01*
X137130288Y-48009467D01*
X137198772Y-48001802D01*
X137267462Y-47994193D01*
X137336361Y-47986643D01*
X137405470Y-47979149D01*
X137474791Y-47971713D01*
X137544328Y-47964334D01*
X137614080Y-47957013D01*
X137684052Y-47949749D01*
X137754244Y-47942542D01*
X137824660Y-47935393D01*
X137895300Y-47928301D01*
X137966168Y-47921267D01*
X138037266Y-47914290D01*
X138108596Y-47907371D01*
X138180161Y-47900509D01*
X138251962Y-47893704D01*
X138324004Y-47886958D01*
X138396287Y-47880268D01*
X138468815Y-47873637D01*
X138541590Y-47867063D01*
X138614615Y-47860547D01*
X138687893Y-47854088D01*
X138761426Y-47847687D01*
X138835218Y-47841343D01*
X138909271Y-47835058D01*
X138983589Y-47828830D01*
X139058174Y-47822660D01*
X139133030Y-47816547D01*
X139208159Y-47810493D01*
X139283566Y-47804496D01*
X139359252Y-47798557D01*
X139435223Y-47792676D01*
X139511481Y-47786852D01*
X139588030Y-47781087D01*
X139664874Y-47775380D01*
X139742015Y-47769730D01*
X139819459Y-47764138D01*
X139897209Y-47758605D01*
X139975270Y-47753129D01*
X140053644Y-47747712D01*
X140132337Y-47742352D01*
X140211353Y-47737050D01*
X140290696Y-47731807D01*
X140370371Y-47726622D01*
X140450383Y-47721494D01*
X140530736Y-47716425D01*
X140611435Y-47711414D01*
X140692486Y-47706462D01*
X140773893Y-47701567D01*
X140855663Y-47696731D01*
X140937800Y-47691953D01*
X141020310Y-47687233D01*
X141103199Y-47682571D01*
X141186473Y-47677968D01*
X141270139Y-47673423D01*
X141354202Y-47668937D01*
X141438669Y-47664509D01*
X141523547Y-47660139D01*
X141608844Y-47655827D01*
X141694565Y-47651574D01*
X141780719Y-47647380D01*
X141867314Y-47643244D01*
X141954356Y-47639166D01*
X142041855Y-47635148D01*
X142129819Y-47631187D01*
X142218257Y-47627285D01*
X142307177Y-47623442D01*
X142396590Y-47619657D01*
X142486504Y-47615931D01*
X142576931Y-47612264D01*
X142667880Y-47608655D01*
X142759363Y-47605105D01*
X142851391Y-47601613D01*
X142943975Y-47598181D01*
X143037127Y-47594807D01*
X143130862Y-47591491D01*
X143225191Y-47588235D01*
X143320129Y-47585037D01*
X143415689Y-47581899D01*
X143511888Y-47578819D01*
X143608740Y-47575798D01*
X143706263Y-47572835D01*
X143804473Y-47569932D01*
X143903389Y-47567088D01*
X144003029Y-47564302D01*
X144103413Y-47561576D01*
X144204562Y-47558908D01*
X144306498Y-47556300D01*
X144409243Y-47553750D01*
X144512823Y-47551259D01*
X144617263Y-47548828D01*
X144722590Y-47546455D01*
X144828833Y-47544142D01*
X144936022Y-47541888D01*
X145044189Y-47539692D01*
X145153368Y-47537556D01*
X145263597Y-47535479D01*
X145374914Y-47533461D01*
X145487360Y-47531503D01*
X145600980Y-47529603D01*
X145715823Y-47527763D01*
X145831938Y-47525982D01*
X145949382Y-47524259D01*
X146068213Y-47522597D01*
X146188498Y-47520993D01*
X146310305Y-47519449D01*
X146433712Y-47517963D01*
X146558802Y-47516537D01*
X146685666Y-47515171D01*
X146814406Y-47513863D01*
X146945132Y-47512615D01*
X147077969Y-47511426D01*
X147213054Y-47510296D01*
X147350542Y-47509225D01*
X147490607Y-47508214D01*
X147633449Y-47507261D01*
X147779293Y-47506368D01*
X147928401Y-47505534D01*
X148081076Y-47504759D01*
X148237678Y-47504043D01*
X148398631Y-47503386D01*
X148564449Y-47502788D01*
X148735763Y-47502249D01*
X148913361Y-47501769D01*
X149098252Y-47501347D01*
X149291766Y-47500984D01*
X149495725Y-47500679D01*
X149712736Y-47500432D01*
X149946800Y-47500242D01*
X150204647Y-47500108D01*
X150499455Y-47500030D01*
X150865403Y-47500001D01*
X151044888Y-47500000D01*
D11*
X200544888Y-124500000D02*
X101044888Y-124500000D01*
D10*
X200544888Y-124500000D02*
X200544878Y-124426044D01*
X200544848Y-124352136D01*
X200544798Y-124278288D01*
X200544728Y-124204487D01*
X200544638Y-124130745D01*
X200544528Y-124057051D01*
X200544399Y-123983417D01*
X200544249Y-123909829D01*
X200544080Y-123836301D01*
X200543890Y-123762821D01*
X200543681Y-123689400D01*
X200543452Y-123616026D01*
X200543203Y-123542711D01*
X200542934Y-123469443D01*
X200542646Y-123396235D01*
X200542337Y-123323074D01*
X200542009Y-123249972D01*
X200541662Y-123176917D01*
X200541294Y-123103922D01*
X200540907Y-123030973D01*
X200540500Y-122958083D01*
X200540073Y-122885241D01*
X200539626Y-122812457D01*
X200539160Y-122739720D01*
X200538675Y-122667042D01*
X200538169Y-122594411D01*
X200537644Y-122521839D01*
X200537100Y-122449314D01*
X200536535Y-122376848D01*
X200535951Y-122304428D01*
X200535348Y-122232067D01*
X200534725Y-122159753D01*
X200534083Y-122087498D01*
X200533421Y-122015289D01*
X200532739Y-121943139D01*
X200532038Y-121871036D01*
X200531318Y-121798991D01*
X200530578Y-121726992D01*
X200529818Y-121655053D01*
X200529039Y-121583159D01*
X200528241Y-121511324D01*
X200527423Y-121439536D01*
X200526586Y-121367806D01*
X200525730Y-121296123D01*
X200524854Y-121224497D01*
X200523958Y-121152919D01*
X200523044Y-121081398D01*
X200522110Y-121009924D01*
X200521157Y-120938508D01*
X200520184Y-120867138D01*
X200519192Y-120795827D01*
X200518181Y-120724561D01*
X200517151Y-120653354D01*
X200516101Y-120582193D01*
X200515032Y-120511090D01*
X200513944Y-120440033D01*
X200512837Y-120369034D01*
X200511711Y-120298081D01*
X200510565Y-120227186D01*
X200509400Y-120156338D01*
X200508216Y-120085547D01*
X200507013Y-120014801D01*
X200505791Y-119944114D01*
X200504550Y-119873473D01*
X200503290Y-119802889D01*
X200502010Y-119732352D01*
X200500712Y-119661871D01*
X200499394Y-119591437D01*
X200498058Y-119521061D01*
X200496702Y-119450730D01*
X200495327Y-119380456D01*
X200493934Y-119310229D01*
X200492521Y-119240059D01*
X200491090Y-119169934D01*
X200489639Y-119099868D01*
X200488170Y-119029846D01*
X200486682Y-118959882D01*
X200485174Y-118889964D01*
X200483648Y-118820103D01*
X200482103Y-118750287D01*
X200480539Y-118680529D01*
X200478957Y-118610816D01*
X200477355Y-118541161D01*
X200475735Y-118471551D01*
X200474096Y-118401997D01*
X200472438Y-118332490D01*
X200470761Y-118263039D01*
X200469065Y-118193634D01*
X200467351Y-118124286D01*
X200465618Y-118054983D01*
X200463867Y-117985737D01*
X200462096Y-117916536D01*
X200460307Y-117847392D01*
X200458499Y-117778294D01*
X200456673Y-117709252D01*
X200454827Y-117640255D01*
X200452964Y-117571315D01*
X200451081Y-117502420D01*
X200449180Y-117433582D01*
X200447261Y-117364789D01*
X200445323Y-117296052D01*
X200443366Y-117227361D01*
X200441390Y-117158726D01*
X200439396Y-117090136D01*
X200437384Y-117021603D01*
X200435353Y-116953114D01*
X200433304Y-116884682D01*
X200431236Y-116816295D01*
X200429149Y-116747964D01*
X200427045Y-116679678D01*
X200424921Y-116611449D01*
X200422780Y-116543264D01*
X200420619Y-116475135D01*
X200418441Y-116407051D01*
X200416244Y-116339024D01*
X200414029Y-116271041D01*
X200411795Y-116203114D01*
X200409543Y-116135232D01*
X200407273Y-116067405D01*
X200404984Y-115999624D01*
X200402677Y-115931898D01*
X200400351Y-115864217D01*
X200398008Y-115796592D01*
X200395646Y-115729012D01*
X200393266Y-115661487D01*
X200390868Y-115594007D01*
X200388451Y-115526582D01*
X200386016Y-115459203D01*
X200383563Y-115391878D01*
X200381092Y-115324598D01*
X200378603Y-115257374D01*
X200376095Y-115190195D01*
X200373570Y-115123070D01*
X200371026Y-115055990D01*
X200368464Y-114988966D01*
X200365884Y-114921986D01*
X200363286Y-114855061D01*
X200360670Y-114788181D01*
X200358036Y-114721356D01*
X200355383Y-114654575D01*
X200352713Y-114587849D01*
X200350024Y-114521168D01*
X200347318Y-114454542D01*
X200344594Y-114387960D01*
X200341852Y-114321433D01*
X200339091Y-114254951D01*
X200336313Y-114188523D01*
X200333517Y-114122139D01*
X200330703Y-114055811D01*
X200327871Y-113989526D01*
X200325021Y-113923297D01*
X200322153Y-113857111D01*
X200319267Y-113790981D01*
X200316364Y-113724894D01*
X200313442Y-113658862D01*
X200310503Y-113592874D01*
X200307546Y-113526941D01*
X200304571Y-113461051D01*
X200301579Y-113395217D01*
X200298568Y-113329426D01*
X200295540Y-113263689D01*
X200292494Y-113197997D01*
X200289430Y-113132359D01*
X200286349Y-113066765D01*
X200283250Y-113001225D01*
X200280133Y-112935729D01*
X200276999Y-112870287D01*
X200273846Y-112804890D01*
X200270677Y-112739546D01*
X200267489Y-112674246D01*
X200264284Y-112609000D01*
X200261061Y-112543798D01*
X200257821Y-112478650D01*
X200254563Y-112413546D01*
X200251288Y-112348496D01*
X200247995Y-112283489D01*
X200244684Y-112218537D01*
X200241356Y-112153628D01*
X200238010Y-112088772D01*
X200234647Y-112023961D01*
X200231266Y-111959203D01*
X200227868Y-111894489D01*
X200224453Y-111829828D01*
X200221019Y-111765211D01*
X200217569Y-111700648D01*
X200214101Y-111636128D01*
X200210616Y-111571661D01*
X200207113Y-111507238D01*
X200203593Y-111442869D01*
X200200055Y-111378543D01*
X200196500Y-111314271D01*
X200192928Y-111250041D01*
X200189339Y-111185865D01*
X200185732Y-111121733D01*
X200182107Y-111057654D01*
X200178466Y-110993618D01*
X200174807Y-110929635D01*
X200171131Y-110865695D01*
X200167438Y-110801809D01*
X200163727Y-110737966D01*
X200159999Y-110674176D01*
X200156254Y-110610429D01*
X200152492Y-110546736D01*
X200148712Y-110483085D01*
X200144916Y-110419487D01*
X200141102Y-110355933D01*
X200137271Y-110292431D01*
X200133423Y-110228972D01*
X200129558Y-110165566D01*
X200125676Y-110102203D01*
X200121776Y-110038894D01*
X200117860Y-109975626D01*
X200113926Y-109912412D01*
X200109976Y-109849240D01*
X200106008Y-109786122D01*
X200102023Y-109723046D01*
X200098022Y-109660022D01*
X200094003Y-109597042D01*
X200089967Y-109534114D01*
X200085914Y-109471229D01*
X200081845Y-109408396D01*
X200077758Y-109345606D01*
X200073655Y-109282868D01*
X200069534Y-109220173D01*
X200065397Y-109157531D01*
X200061242Y-109094931D01*
X200057071Y-109032383D01*
X200052883Y-108969878D01*
X200048678Y-108907425D01*
X200044456Y-108845015D01*
X200040218Y-108782657D01*
X200035962Y-108720341D01*
X200031690Y-108658078D01*
X200027401Y-108595857D01*
X200023095Y-108533688D01*
X200018772Y-108471561D01*
X200014433Y-108409487D01*
X200010077Y-108347455D01*
X200005704Y-108285474D01*
X200001314Y-108223536D01*
X199996908Y-108161650D01*
X199992485Y-108099806D01*
X199988045Y-108038015D01*
X199983589Y-107976265D01*
X199979116Y-107914567D01*
X199974626Y-107852911D01*
X199970120Y-107791307D01*
X199965597Y-107729745D01*
X199961057Y-107668235D01*
X199956501Y-107606766D01*
X199951929Y-107545350D01*
X199947339Y-107483975D01*
X199942733Y-107422652D01*
X199938111Y-107361371D01*
X199933472Y-107300141D01*
X199928817Y-107238953D01*
X199924145Y-107177817D01*
X199919456Y-107116723D01*
X199914752Y-107055680D01*
X199910030Y-106994678D01*
X199905293Y-106933728D01*
X199900538Y-106872820D01*
X199895768Y-106811964D01*
X199890980Y-106751148D01*
X199886177Y-106690385D01*
X199881357Y-106629662D01*
X199876521Y-106568991D01*
X199871668Y-106508362D01*
X199866799Y-106447783D01*
X199861914Y-106387247D01*
X199857013Y-106326761D01*
X199852094Y-106266317D01*
X199847160Y-106205924D01*
X199842210Y-106145572D01*
X199837243Y-106085271D01*
X199832260Y-106025012D01*
X199827261Y-105964803D01*
X199822245Y-105904636D01*
X199817214Y-105844520D01*
X199812165Y-105784445D01*
X199807101Y-105724421D01*
X199802021Y-105664438D01*
X199796925Y-105604506D01*
X199791812Y-105544615D01*
X199786683Y-105484775D01*
X199781538Y-105424975D01*
X199776377Y-105365227D01*
X199771200Y-105305520D01*
X199766007Y-105245863D01*
X199760797Y-105186247D01*
X199755572Y-105126682D01*
X199750330Y-105067158D01*
X199745073Y-105007684D01*
X199739799Y-104948251D01*
X199734510Y-104888869D01*
X199729204Y-104829528D01*
X199723882Y-104770236D01*
X199718545Y-104710986D01*
X199713191Y-104651786D01*
X199707822Y-104592627D01*
X199702436Y-104533519D01*
X199697035Y-104474450D01*
X199691618Y-104415433D01*
X199686184Y-104356455D01*
X199680735Y-104297528D01*
X199675270Y-104238642D01*
X199669789Y-104179806D01*
X199664292Y-104121010D01*
X199658780Y-104062265D01*
X199653251Y-104003560D01*
X199647707Y-103944905D01*
X199642147Y-103886290D01*
X199636572Y-103827725D01*
X199630980Y-103769201D01*
X199625372Y-103710727D01*
X199619749Y-103652293D01*
X199614110Y-103593909D01*
X199608456Y-103535566D01*
X199602785Y-103477272D01*
X199597099Y-103419018D01*
X199591398Y-103360814D01*
X199585680Y-103302651D01*
X199579947Y-103244537D01*
X199574198Y-103186463D01*
X199568434Y-103128439D01*
X199562653Y-103070455D01*
X199556858Y-103012521D01*
X199551046Y-102954627D01*
X199545220Y-102896782D01*
X199539377Y-102838977D01*
X199533519Y-102781222D01*
X199527645Y-102723507D01*
X199521756Y-102665841D01*
X199515851Y-102608215D01*
X199509931Y-102550639D01*
X199503995Y-102493102D01*
X199498044Y-102435615D01*
X199492077Y-102378168D01*
X199486095Y-102320769D01*
X199480098Y-102263411D01*
X199474085Y-102206102D01*
X199468056Y-102148833D01*
X199462012Y-102091612D01*
X199455952Y-102034432D01*
X199449878Y-101977300D01*
X199443787Y-101920209D01*
X199437682Y-101863166D01*
X199431561Y-101806163D01*
X199425425Y-101749209D01*
X199419273Y-101692294D01*
X199413106Y-101635428D01*
X199406923Y-101578603D01*
X199400726Y-101521825D01*
X199394513Y-101465088D01*
X199388285Y-101408398D01*
X199382041Y-101351749D01*
X199375783Y-101295148D01*
X199369509Y-101238587D01*
X199363220Y-101182074D01*
X199356915Y-101125601D01*
X199350596Y-101069176D01*
X199344260Y-101012791D01*
X199337911Y-100956454D01*
X199331545Y-100900157D01*
X199325165Y-100843907D01*
X199318769Y-100787698D01*
X199312359Y-100731536D01*
X199305933Y-100675414D01*
X199299492Y-100619340D01*
X199293036Y-100563306D01*
X199286565Y-100507319D01*
X199280079Y-100451372D01*
X199273578Y-100395473D01*
X199267061Y-100339614D01*
X199260530Y-100283802D01*
X199253984Y-100228029D01*
X199247423Y-100172305D01*
X199240846Y-100116619D01*
X199234255Y-100060982D01*
X199227648Y-100005383D01*
X199221027Y-99949833D01*
X199214391Y-99894321D01*
X199207740Y-99838858D01*
X199201073Y-99783433D01*
X199194393Y-99728056D01*
X199187696Y-99672718D01*
X199180986Y-99617428D01*
X199174260Y-99562177D01*
X199167519Y-99506973D01*
X199160763Y-99451809D01*
X199153993Y-99396691D01*
X199147208Y-99341613D01*
X199140408Y-99286582D01*
X199133593Y-99231590D01*
X199126764Y-99176646D01*
X199119919Y-99121740D01*
X199113060Y-99066881D01*
X199106186Y-99012062D01*
X199099297Y-98957289D01*
X199092393Y-98902556D01*
X199085475Y-98847869D01*
X199078542Y-98793222D01*
X199071595Y-98738621D01*
X199064632Y-98684059D01*
X199057655Y-98629544D01*
X199050663Y-98575068D01*
X199043657Y-98520639D01*
X199036636Y-98466249D01*
X199029601Y-98411905D01*
X199022550Y-98357600D01*
X199015485Y-98303342D01*
X199008406Y-98249122D01*
X199001312Y-98194950D01*
X198994203Y-98140815D01*
X198987080Y-98086728D01*
X198979942Y-98032679D01*
X198972789Y-97978676D01*
X198965622Y-97924713D01*
X198958441Y-97870795D01*
X198951245Y-97816916D01*
X198944035Y-97763084D01*
X198936809Y-97709290D01*
X198929570Y-97655543D01*
X198922316Y-97601833D01*
X198915048Y-97548171D01*
X198907765Y-97494546D01*
X198900468Y-97440968D01*
X198893156Y-97387428D01*
X198885830Y-97333935D01*
X198878490Y-97280479D01*
X198871135Y-97227070D01*
X198863765Y-97173699D01*
X198856382Y-97120375D01*
X198848984Y-97067088D01*
X198841572Y-97013848D01*
X198834145Y-96960645D01*
X198826705Y-96907489D01*
X198819249Y-96854371D01*
X198811780Y-96801299D01*
X198804296Y-96748264D01*
X198796798Y-96695276D01*
X198789285Y-96642326D01*
X198781759Y-96589421D01*
X198774218Y-96536555D01*
X198766663Y-96483734D01*
X198759094Y-96430952D01*
X198751511Y-96378215D01*
X198743913Y-96325516D01*
X198736301Y-96272862D01*
X198728675Y-96220247D01*
X198721035Y-96167677D01*
X198713380Y-96115144D01*
X198705712Y-96062658D01*
X198698029Y-96010209D01*
X198690333Y-95957806D01*
X198682622Y-95905440D01*
X198674897Y-95853120D01*
X198667158Y-95800837D01*
X198659405Y-95748600D01*
X198651638Y-95696401D01*
X198643857Y-95644247D01*
X198636062Y-95592130D01*
X198628253Y-95540059D01*
X198620430Y-95488025D01*
X198612593Y-95436037D01*
X198604741Y-95384086D01*
X198596876Y-95332180D01*
X198588997Y-95280312D01*
X198581104Y-95228488D01*
X198573197Y-95176703D01*
X198565276Y-95124962D01*
X198557341Y-95073259D01*
X198549393Y-95021600D01*
X198541430Y-94969979D01*
X198533454Y-94918403D01*
X198525463Y-94866864D01*
X198517459Y-94815370D01*
X198509441Y-94763914D01*
X198501409Y-94712502D01*
X198493363Y-94661127D01*
X198485303Y-94609798D01*
X198477230Y-94558505D01*
X198469143Y-94507257D01*
X198461042Y-94456046D01*
X198452927Y-94404880D01*
X198444798Y-94353751D01*
X198436656Y-94302666D01*
X198428500Y-94251619D01*
X198420330Y-94200616D01*
X198412146Y-94149650D01*
X198403950Y-94098729D01*
X198395738Y-94047845D01*
X198387514Y-93997005D01*
X198379275Y-93946202D01*
X198371024Y-93895443D01*
X198362758Y-93844721D01*
X198354479Y-93794044D01*
X198346186Y-93743403D01*
X198337880Y-93692807D01*
X198329559Y-93642247D01*
X198321226Y-93591732D01*
X198312878Y-93541253D01*
X198304517Y-93490819D01*
X198296143Y-93440421D01*
X198287755Y-93390067D01*
X198279353Y-93339750D01*
X198270938Y-93289477D01*
X198262509Y-93239241D01*
X198254068Y-93189049D01*
X198245612Y-93138893D01*
X198237143Y-93088781D01*
X198228660Y-93038706D01*
X198220164Y-92988675D01*
X198211654Y-92938680D01*
X198203132Y-92888729D01*
X198194595Y-92838814D01*
X198186045Y-92788944D01*
X198177482Y-92739109D01*
X198168905Y-92689319D01*
X198160315Y-92639564D01*
X198151712Y-92589854D01*
X198143095Y-92540179D01*
X198134465Y-92490549D01*
X198125821Y-92440954D01*
X198117164Y-92391403D01*
X198108494Y-92341889D01*
X198099811Y-92292418D01*
X198091114Y-92242983D01*
X198082404Y-92193591D01*
X198073680Y-92144236D01*
X198064944Y-92094924D01*
X198056193Y-92045649D01*
X198047430Y-91996416D01*
X198038654Y-91947220D01*
X198029864Y-91898067D01*
X198021061Y-91848950D01*
X198012245Y-91799876D01*
X198003416Y-91750838D01*
X197994573Y-91701843D01*
X197985717Y-91652885D01*
X197976849Y-91603969D01*
X197967966Y-91555089D01*
X197959072Y-91506253D01*
X197950163Y-91457452D01*
X197941242Y-91408694D01*
X197932307Y-91359972D01*
X197923360Y-91311293D01*
X197914398Y-91262650D01*
X197905425Y-91214050D01*
X197896438Y-91165485D01*
X197887438Y-91116964D01*
X197878425Y-91068478D01*
X197869399Y-91020035D01*
X197860359Y-90971627D01*
X197851308Y-90923262D01*
X197842242Y-90874933D01*
X197833164Y-90826647D01*
X197824073Y-90778396D01*
X197814969Y-90730187D01*
X197805851Y-90682015D01*
X197796722Y-90633884D01*
X197787578Y-90585790D01*
X197778423Y-90537738D01*
X197769253Y-90489721D01*
X197760072Y-90441747D01*
X197750877Y-90393808D01*
X197741670Y-90345911D01*
X197732449Y-90298051D01*
X197723216Y-90250232D01*
X197713969Y-90202449D01*
X197704710Y-90154707D01*
X197695438Y-90107002D01*
X197686154Y-90059338D01*
X197676856Y-90011710D01*
X197667546Y-89964124D01*
X197658222Y-89916573D01*
X197648886Y-89869064D01*
X197639537Y-89821591D01*
X197630176Y-89774159D01*
X197620801Y-89726763D01*
X197611414Y-89679408D01*
X197602014Y-89632089D01*
X197592602Y-89584812D01*
X197583176Y-89537570D01*
X197573739Y-89490369D01*
X197564287Y-89443204D01*
X197554824Y-89396081D01*
X197545348Y-89348992D01*
X197535859Y-89301945D01*
X197526358Y-89254934D01*
X197516844Y-89207964D01*
X197507317Y-89161029D01*
X197497778Y-89114135D01*
X197488226Y-89067277D01*
X197478661Y-89020460D01*
X197469084Y-88973678D01*
X197459494Y-88926937D01*
X197449892Y-88880232D01*
X197440277Y-88833567D01*
X197430649Y-88786938D01*
X197421009Y-88740350D01*
X197411356Y-88693797D01*
X197401692Y-88647285D01*
X197392014Y-88600808D01*
X197382324Y-88554372D01*
X197372621Y-88507971D01*
X197362906Y-88461611D01*
X197353178Y-88415285D01*
X197343438Y-88369001D01*
X197333685Y-88322752D01*
X197323920Y-88276543D01*
X197314143Y-88230370D01*
X197304353Y-88184237D01*
X197294550Y-88138139D01*
X197284736Y-88092081D01*
X197274909Y-88046059D01*
X197265069Y-88000077D01*
X197255217Y-87954130D01*
X197245353Y-87908223D01*
X197235476Y-87862351D01*
X197225588Y-87816520D01*
X197215686Y-87770723D01*
X197205773Y-87724967D01*
X197195846Y-87679246D01*
X197185908Y-87633565D01*
X197175957Y-87587918D01*
X197165995Y-87542312D01*
X197156019Y-87496741D01*
X197146032Y-87451210D01*
X197136032Y-87405713D01*
X197126020Y-87360257D01*
X197115996Y-87314835D01*
X197105960Y-87269453D01*
X197095911Y-87224106D01*
X197085850Y-87178799D01*
X197075777Y-87133527D01*
X197065692Y-87088294D01*
X197055594Y-87043096D01*
X197045484Y-86997938D01*
X197035362Y-86952814D01*
X197025229Y-86907731D01*
X197015082Y-86862681D01*
X197004924Y-86817672D01*
X196994754Y-86772696D01*
X196984571Y-86727761D01*
X196974376Y-86682860D01*
X196964170Y-86637999D01*
X196953951Y-86593172D01*
X196943720Y-86548384D01*
X196933477Y-86503631D01*
X196923222Y-86458918D01*
X196912955Y-86414238D01*
X196902676Y-86369598D01*
X196892385Y-86324993D01*
X196882082Y-86280427D01*
X196871766Y-86235895D01*
X196861439Y-86191402D01*
X196851100Y-86146944D01*
X196840749Y-86102525D01*
X196830386Y-86058140D01*
X196820011Y-86013795D01*
X196809623Y-85969483D01*
X196799225Y-85925211D01*
X196788813Y-85880973D01*
X196778391Y-85836774D01*
X196767956Y-85792609D01*
X196757509Y-85748483D01*
X196747050Y-85704391D01*
X196736580Y-85660338D01*
X196726098Y-85616319D01*
X196715604Y-85572339D01*
X196705097Y-85528393D01*
X196694580Y-85484486D01*
X196684049Y-85440613D01*
X196673508Y-85396778D01*
X196662954Y-85352978D01*
X196652389Y-85309216D01*
X196641812Y-85265488D01*
X196631223Y-85221799D01*
X196620622Y-85178144D01*
X196610010Y-85134527D01*
X196599386Y-85090944D01*
X196588750Y-85047400D01*
X196578102Y-85003890D01*
X196567443Y-84960418D01*
X196556772Y-84916979D01*
X196546089Y-84873580D01*
X196535394Y-84830214D01*
X196524688Y-84786886D01*
X196513970Y-84743592D01*
X196503240Y-84700337D01*
X196492499Y-84657115D01*
X196481746Y-84613931D01*
X196470981Y-84570781D01*
X196460205Y-84527669D01*
X196449416Y-84484591D01*
X196438617Y-84441551D01*
X196427806Y-84398544D01*
X196416983Y-84355576D01*
X196406148Y-84312641D01*
X196395303Y-84269744D01*
X196384445Y-84226881D01*
X196373576Y-84184055D01*
X196362695Y-84141263D01*
X196351803Y-84098510D01*
X196340898Y-84055789D01*
X196329983Y-84013106D01*
X196319056Y-83970457D01*
X196308118Y-83927846D01*
X196297168Y-83885267D01*
X196286206Y-83842727D01*
X196275233Y-83800220D01*
X196264249Y-83757751D01*
X196253253Y-83715315D01*
X196242246Y-83672916D01*
X196231226Y-83630551D01*
X196220196Y-83588224D01*
X196209154Y-83545929D01*
X196198101Y-83503672D01*
X196187037Y-83461449D01*
X196175961Y-83419263D01*
X196164873Y-83377110D01*
X196153775Y-83334994D01*
X196142664Y-83292912D01*
X196131543Y-83250867D01*
X196120409Y-83208855D01*
X196109265Y-83166880D01*
X196098110Y-83124938D01*
X196086943Y-83083034D01*
X196075764Y-83041162D01*
X196064575Y-82999328D01*
X196053373Y-82957527D01*
X196042161Y-82915763D01*
X196030938Y-82874032D01*
X196019703Y-82832338D01*
X196008457Y-82790677D01*
X195997199Y-82749053D01*
X195985930Y-82707462D01*
X195974651Y-82665907D01*
X195963359Y-82624386D01*
X195952057Y-82582902D01*
X195940743Y-82541450D01*
X195929419Y-82500035D01*
X195918082Y-82458653D01*
X195906735Y-82417308D01*
X195895376Y-82375995D01*
X195884007Y-82334720D01*
X195872626Y-82293477D01*
X195861234Y-82252271D01*
X195849831Y-82211097D01*
X195838417Y-82169960D01*
X195826991Y-82128856D01*
X195815554Y-82087788D01*
X195804106Y-82046753D01*
X195792648Y-82005754D01*
X195781178Y-81964788D01*
X195769697Y-81923859D01*
X195758204Y-81882961D01*
X195746701Y-81842101D01*
X195735187Y-81801273D01*
X195723662Y-81760481D01*
X195712125Y-81719722D01*
X195700578Y-81678999D01*
X195689019Y-81638308D01*
X195677450Y-81597654D01*
X195665869Y-81557032D01*
X195654278Y-81516447D01*
X195642675Y-81475893D01*
X195631061Y-81435376D01*
X195619436Y-81394891D01*
X195607801Y-81354443D01*
X195596154Y-81314026D01*
X195584497Y-81273646D01*
X195572828Y-81233298D01*
X195561149Y-81192986D01*
X195549459Y-81152706D01*
X195537758Y-81112462D01*
X195526045Y-81072250D01*
X195514322Y-81032074D01*
X195502588Y-80991930D01*
X195490843Y-80951822D01*
X195479087Y-80911747D01*
X195467321Y-80871707D01*
X195455543Y-80831699D01*
X195443755Y-80791727D01*
X195431955Y-80751786D01*
X195420145Y-80711882D01*
X195408324Y-80672009D01*
X195396493Y-80632173D01*
X195384650Y-80592368D01*
X195372797Y-80552599D01*
X195360932Y-80512861D01*
X195349057Y-80473159D01*
X195337171Y-80433489D01*
X195325275Y-80393855D01*
X195313367Y-80354252D01*
X195301449Y-80314685D01*
X195289520Y-80275150D01*
X195277581Y-80235650D01*
X195265630Y-80196182D01*
X195253669Y-80156749D01*
X195241697Y-80117348D01*
X195229715Y-80077982D01*
X195217721Y-80038648D01*
X195205717Y-79999349D01*
X195193702Y-79960082D01*
X195181677Y-79920850D01*
X195169641Y-79881649D01*
X195157594Y-79842484D01*
X195145537Y-79803350D01*
X195133469Y-79764251D01*
X195121390Y-79725184D01*
X195109301Y-79686152D01*
X195097201Y-79647152D01*
X195085090Y-79608186D01*
X195072969Y-79569252D01*
X195060837Y-79530353D01*
X195048695Y-79491485D01*
X195036542Y-79452653D01*
X195024378Y-79413851D01*
X195012204Y-79375085D01*
X195000019Y-79336349D01*
X194987824Y-79297649D01*
X194975618Y-79258980D01*
X194963402Y-79220345D01*
X194951175Y-79181742D01*
X194938938Y-79143174D01*
X194926689Y-79104637D01*
X194914431Y-79066134D01*
X194902162Y-79027663D01*
X194889883Y-78989226D01*
X194877592Y-78950821D01*
X194865292Y-78912450D01*
X194852981Y-78874110D01*
X194840660Y-78835805D01*
X194828328Y-78797531D01*
X194815986Y-78759291D01*
X194803633Y-78721082D01*
X194791270Y-78682908D01*
X194778896Y-78644764D01*
X194766512Y-78606655D01*
X194754118Y-78568577D01*
X194741713Y-78530534D01*
X194729298Y-78492521D01*
X194716872Y-78454543D01*
X194704436Y-78416595D01*
X194691990Y-78378682D01*
X194679533Y-78340799D01*
X194667066Y-78302951D01*
X194654588Y-78265133D01*
X194642101Y-78227350D01*
X194629602Y-78189598D01*
X194617094Y-78151879D01*
X194604575Y-78114191D01*
X194592046Y-78076537D01*
X194579507Y-78038914D01*
X194566957Y-78001325D01*
X194554397Y-77963767D01*
X194541827Y-77926243D01*
X194529246Y-77888749D01*
X194516656Y-77851289D01*
X194504054Y-77813860D01*
X194491443Y-77776464D01*
X194478821Y-77739099D01*
X194466190Y-77701768D01*
X194453547Y-77664467D01*
X194440895Y-77627200D01*
X194428233Y-77589964D01*
X194415560Y-77552761D01*
X194402877Y-77515589D01*
X194390184Y-77478450D01*
X194377481Y-77441342D01*
X194364767Y-77404268D01*
X194352043Y-77367223D01*
X194339310Y-77330213D01*
X194326566Y-77293232D01*
X194313812Y-77256285D01*
X194301047Y-77219369D01*
X194288273Y-77182486D01*
X194275488Y-77145633D01*
X194262694Y-77108814D01*
X194249889Y-77072025D01*
X194237074Y-77035269D01*
X194224249Y-76998543D01*
X194211414Y-76961851D01*
X194198569Y-76925188D01*
X194185714Y-76888559D01*
X194172848Y-76851961D01*
X194159973Y-76815395D01*
X194147087Y-76778860D01*
X194134192Y-76742357D01*
X194121286Y-76705885D01*
X194108371Y-76669446D01*
X194095445Y-76633037D01*
X194082510Y-76596660D01*
X194069564Y-76560314D01*
X194056608Y-76524001D01*
X194043643Y-76487718D01*
X194030667Y-76451468D01*
X194017681Y-76415248D01*
X194004686Y-76379060D01*
X193991680Y-76342903D01*
X193978665Y-76306778D01*
X193965639Y-76270683D01*
X193952604Y-76234621D01*
X193939558Y-76198589D01*
X193926503Y-76162590D01*
X193913437Y-76126620D01*
X193900362Y-76090683D01*
X193887277Y-76054776D01*
X193874182Y-76018901D01*
X193861077Y-75983057D01*
X193847962Y-75947244D01*
X193834837Y-75911462D01*
X193821703Y-75875712D01*
X193808558Y-75839992D01*
X193795404Y-75804304D01*
X193782240Y-75768646D01*
X193769066Y-75733020D01*
X193755881Y-75697424D01*
X193742688Y-75661860D01*
X193729484Y-75626326D01*
X193716271Y-75590824D01*
X193703047Y-75555352D01*
X193689814Y-75519912D01*
X193676571Y-75484502D01*
X193663319Y-75449123D01*
X193650056Y-75413775D01*
X193636784Y-75378458D01*
X193623502Y-75343171D01*
X193610210Y-75307916D01*
X193596908Y-75272690D01*
X193583597Y-75237497D01*
X193570275Y-75202333D01*
X193556945Y-75167200D01*
X193543604Y-75132098D01*
X193530254Y-75097027D01*
X193516893Y-75061986D01*
X193503524Y-75026976D01*
X193490144Y-74991996D01*
X193476755Y-74957047D01*
X193463356Y-74922129D01*
X193449947Y-74887241D01*
X193436528Y-74852383D01*
X193423101Y-74817557D01*
X193409663Y-74782760D01*
X193396215Y-74747994D01*
X193382758Y-74713258D01*
X193369291Y-74678554D01*
X193355815Y-74643879D01*
X193342329Y-74609235D01*
X193328833Y-74574620D01*
X193315328Y-74540037D01*
X193301813Y-74505483D01*
X193288288Y-74470960D01*
X193274754Y-74436467D01*
X193261210Y-74402005D01*
X193247657Y-74367572D01*
X193234094Y-74333171D01*
X193220521Y-74298798D01*
X193206939Y-74264457D01*
X193193347Y-74230145D01*
X193179746Y-74195864D01*
X193166135Y-74161612D01*
X193152515Y-74127391D01*
X193138885Y-74093199D01*
X193125245Y-74059039D01*
X193111596Y-74024907D01*
X193097937Y-73990806D01*
X193084269Y-73956735D01*
X193070592Y-73922694D01*
X193056904Y-73888682D01*
X193043208Y-73854701D01*
X193029501Y-73820749D01*
X193015786Y-73786828D01*
X193002060Y-73752936D01*
X192988326Y-73719075D01*
X192974581Y-73685242D01*
X192960828Y-73651440D01*
X192947065Y-73617668D01*
X192933292Y-73583925D01*
X192919510Y-73550212D01*
X192905719Y-73516529D01*
X192891918Y-73482875D01*
X192878107Y-73449252D01*
X192864288Y-73415657D01*
X192850458Y-73382093D01*
X192836620Y-73348558D01*
X192822772Y-73315053D01*
X192808914Y-73281577D01*
X192795047Y-73248131D01*
X192781171Y-73214714D01*
X192767285Y-73181327D01*
X192753390Y-73147969D01*
X192739486Y-73114641D01*
X192725572Y-73081343D01*
X192711649Y-73048074D01*
X192697716Y-73014834D01*
X192683775Y-72981623D01*
X192669823Y-72948442D01*
X192655863Y-72915291D01*
X192641893Y-72882168D01*
X192627914Y-72849075D01*
X192613925Y-72816012D01*
X192599927Y-72782977D01*
X192585920Y-72749972D01*
X192571904Y-72716996D01*
X192557878Y-72684050D01*
X192543843Y-72651132D01*
X192529798Y-72618244D01*
X192515745Y-72585385D01*
X192501681Y-72552555D01*
X192487609Y-72519754D01*
X192473528Y-72486982D01*
X192459437Y-72454240D01*
X192445337Y-72421526D01*
X192431228Y-72388842D01*
X192417109Y-72356186D01*
X192402981Y-72323560D01*
X192388844Y-72290962D01*
X192374698Y-72258394D01*
X192360543Y-72225854D01*
X192346378Y-72193343D01*
X192332204Y-72160861D01*
X192318021Y-72128409D01*
X192303828Y-72095984D01*
X192289627Y-72063589D01*
X192275416Y-72031223D01*
X192261196Y-71998886D01*
X192246967Y-71966577D01*
X192232729Y-71934297D01*
X192218482Y-71902045D01*
X192204225Y-71869823D01*
X192189959Y-71837629D01*
X192175684Y-71805464D01*
X192161400Y-71773328D01*
X192147107Y-71741220D01*
X192132805Y-71709141D01*
X192118493Y-71677090D01*
X192104173Y-71645068D01*
X192089843Y-71613075D01*
X192075504Y-71581110D01*
X192061156Y-71549174D01*
X192046799Y-71517266D01*
X192032433Y-71485387D01*
X192018058Y-71453536D01*
X192003673Y-71421714D01*
X191989280Y-71389920D01*
X191974877Y-71358155D01*
X191960466Y-71326418D01*
X191946045Y-71294709D01*
X191931615Y-71263029D01*
X191917176Y-71231377D01*
X191902729Y-71199753D01*
X191888272Y-71168158D01*
X191873806Y-71136591D01*
X191859331Y-71105052D01*
X191844847Y-71073541D01*
X191830354Y-71042059D01*
X191815852Y-71010605D01*
X191801340Y-70979179D01*
X191786820Y-70947781D01*
X191772291Y-70916412D01*
X191757753Y-70885070D01*
X191743206Y-70853757D01*
X191728650Y-70822472D01*
X191714085Y-70791215D01*
X191699510Y-70759985D01*
X191684927Y-70728784D01*
X191670335Y-70697611D01*
X191655734Y-70666466D01*
X191641124Y-70635349D01*
X191626505Y-70604260D01*
X191611877Y-70573199D01*
X191597241Y-70542165D01*
X191582595Y-70511160D01*
X191567940Y-70480182D01*
X191553276Y-70449233D01*
X191538604Y-70418311D01*
X191523922Y-70387417D01*
X191509231Y-70356551D01*
X191494532Y-70325712D01*
X191479824Y-70294902D01*
X191465107Y-70264119D01*
X191450380Y-70233363D01*
X191435645Y-70202636D01*
X191420901Y-70171936D01*
X191406149Y-70141264D01*
X191391387Y-70110620D01*
X191376616Y-70080003D01*
X191361837Y-70049414D01*
X191347049Y-70018852D01*
X191332251Y-69988318D01*
X191317445Y-69957812D01*
X191302630Y-69927333D01*
X191287807Y-69896881D01*
X191272974Y-69866457D01*
X191258132Y-69836061D01*
X191243282Y-69805692D01*
X191228423Y-69775351D01*
X191213555Y-69745036D01*
X191198678Y-69714750D01*
X191183793Y-69684491D01*
X191168898Y-69654259D01*
X191153995Y-69624054D01*
X191139083Y-69593877D01*
X191124162Y-69563727D01*
X191109232Y-69533604D01*
X191094294Y-69503509D01*
X191079347Y-69473441D01*
X191064390Y-69443400D01*
X191049426Y-69413386D01*
X191034452Y-69383400D01*
X191019470Y-69353441D01*
X191004478Y-69323509D01*
X190989479Y-69293604D01*
X190974470Y-69263726D01*
X190959452Y-69233875D01*
X190944426Y-69204051D01*
X190929391Y-69174255D01*
X190914348Y-69144485D01*
X190899295Y-69114743D01*
X190884234Y-69085028D01*
X190869164Y-69055339D01*
X190854086Y-69025678D01*
X190838998Y-68996043D01*
X190823902Y-68966436D01*
X190808797Y-68936855D01*
X190793684Y-68907301D01*
X190778562Y-68877775D01*
X190763431Y-68848274D01*
X190748291Y-68818801D01*
X190733143Y-68789355D01*
X190717986Y-68759936D01*
X190702820Y-68730543D01*
X190687646Y-68701177D01*
X190672463Y-68671838D01*
X190657271Y-68642525D01*
X190642071Y-68613240D01*
X190626862Y-68583981D01*
X190611644Y-68554748D01*
X190596418Y-68525543D01*
X190581183Y-68496364D01*
X190565939Y-68467211D01*
X190550687Y-68438085D01*
X190535426Y-68408986D01*
X190520156Y-68379914D01*
X190504878Y-68350868D01*
X190489591Y-68321848D01*
X190474296Y-68292855D01*
X190458991Y-68263888D01*
X190443679Y-68234949D01*
X190428357Y-68206035D01*
X190413027Y-68177148D01*
X190397689Y-68148287D01*
X190382342Y-68119453D01*
X190366986Y-68090645D01*
X190351621Y-68061864D01*
X190336248Y-68033108D01*
X190320867Y-68004380D01*
X190305477Y-67975677D01*
X190290078Y-67947001D01*
X190274670Y-67918351D01*
X190259255Y-67889728D01*
X190243830Y-67861130D01*
X190228397Y-67832559D01*
X190212955Y-67804014D01*
X190197505Y-67775495D01*
X190182046Y-67747002D01*
X190166579Y-67718536D01*
X190151103Y-67690096D01*
X190135619Y-67661682D01*
X190120126Y-67633293D01*
X190104625Y-67604932D01*
X190089114Y-67576596D01*
X190073596Y-67548286D01*
X190058069Y-67520002D01*
X190042533Y-67491744D01*
X190026989Y-67463512D01*
X190011437Y-67435307D01*
X189995875Y-67407126D01*
X189980306Y-67378973D01*
X189964727Y-67350844D01*
X189949141Y-67322743D01*
X189933546Y-67294666D01*
X189917942Y-67266616D01*
X189902330Y-67238591D01*
X189886709Y-67210593D01*
X189871080Y-67182620D01*
X189855442Y-67154673D01*
X189839796Y-67126751D01*
X189824141Y-67098856D01*
X189808478Y-67070986D01*
X189792807Y-67043142D01*
X189777126Y-67015324D01*
X189761438Y-66987531D01*
X189745741Y-66959764D01*
X189730036Y-66932023D01*
X189714322Y-66904307D01*
X189698599Y-66876617D01*
X189682868Y-66848953D01*
X189667129Y-66821314D01*
X189651381Y-66793700D01*
X189635625Y-66766113D01*
X189619861Y-66738551D01*
X189604088Y-66711014D01*
X189588306Y-66683503D01*
X189572516Y-66656017D01*
X189556718Y-66628557D01*
X189540911Y-66601122D01*
X189525096Y-66573713D01*
X189509272Y-66546329D01*
X189493440Y-66518970D01*
X189477600Y-66491637D01*
X189461751Y-66464329D01*
X189445894Y-66437047D01*
X189430028Y-66409789D01*
X189414154Y-66382558D01*
X189398271Y-66355351D01*
X189382381Y-66328170D01*
X189366481Y-66301014D01*
X189350574Y-66273883D01*
X189334657Y-66246777D01*
X189318733Y-66219698D01*
X189302800Y-66192642D01*
X189286859Y-66165612D01*
X189270909Y-66138607D01*
X189254952Y-66111628D01*
X189238985Y-66084673D01*
X189223011Y-66057744D01*
X189207027Y-66030839D01*
X189191036Y-66003960D01*
X189175036Y-65977105D01*
X189159028Y-65950276D01*
X189143012Y-65923472D01*
X189126987Y-65896693D01*
X189110953Y-65869938D01*
X189094912Y-65843209D01*
X189078862Y-65816504D01*
X189062804Y-65789825D01*
X189046737Y-65763170D01*
X189030663Y-65736541D01*
X189014579Y-65709936D01*
X188998488Y-65683356D01*
X188982387Y-65656801D01*
X188966280Y-65630271D01*
X188950163Y-65603765D01*
X188934038Y-65577285D01*
X188917904Y-65550829D01*
X188901763Y-65524398D01*
X188885613Y-65497991D01*
X188869455Y-65471610D01*
X188853288Y-65445252D01*
X188837114Y-65418921D01*
X188820930Y-65392613D01*
X188804739Y-65366330D01*
X188788539Y-65340071D01*
X188772332Y-65313838D01*
X188756115Y-65287629D01*
X188739891Y-65261445D01*
X188723657Y-65235284D01*
X188707416Y-65209149D01*
X188691167Y-65183038D01*
X188674909Y-65156952D01*
X188658643Y-65130890D01*
X188642369Y-65104853D01*
X188626086Y-65078840D01*
X188609795Y-65052852D01*
X188593496Y-65026887D01*
X188577189Y-65000949D01*
X188560872Y-64975033D01*
X188544549Y-64949143D01*
X188528216Y-64923276D01*
X188511876Y-64897434D01*
X188495527Y-64871616D01*
X188479170Y-64845823D01*
X188462804Y-64820054D01*
X188446431Y-64794309D01*
X188430049Y-64768588D01*
X188413659Y-64742893D01*
X188397260Y-64717220D01*
X188380854Y-64691573D01*
X188364439Y-64665949D01*
X188348016Y-64640350D01*
X188331584Y-64614774D01*
X188315145Y-64589224D01*
X188298697Y-64563696D01*
X188282241Y-64538194D01*
X188265776Y-64512715D01*
X188249304Y-64487261D01*
X188232823Y-64461829D01*
X188216334Y-64436424D01*
X188199836Y-64411040D01*
X188183331Y-64385683D01*
X188166817Y-64360348D01*
X188150296Y-64335038D01*
X188133765Y-64309751D01*
X188117227Y-64284489D01*
X188100680Y-64259250D01*
X188084125Y-64234036D01*
X188067562Y-64208844D01*
X188050991Y-64183678D01*
X188034411Y-64158534D01*
X188017824Y-64133416D01*
X188001227Y-64108320D01*
X187984624Y-64083249D01*
X187968011Y-64058201D01*
X187951391Y-64033178D01*
X187934761Y-64008177D01*
X187918125Y-63983202D01*
X187901479Y-63958248D01*
X187884826Y-63933320D01*
X187868164Y-63908414D01*
X187851495Y-63883534D01*
X187834816Y-63858675D01*
X187818131Y-63833842D01*
X187801436Y-63809031D01*
X187784734Y-63784245D01*
X187768022Y-63759481D01*
X187751304Y-63734742D01*
X187734576Y-63710025D01*
X187717841Y-63685334D01*
X187701097Y-63660664D01*
X187684346Y-63636020D01*
X187667586Y-63611397D01*
X187650818Y-63586800D01*
X187634041Y-63562224D01*
X187617257Y-63537673D01*
X187600464Y-63513145D01*
X187583664Y-63488641D01*
X187566854Y-63464159D01*
X187550038Y-63439703D01*
X187533212Y-63415268D01*
X187516379Y-63390857D01*
X187499536Y-63366469D01*
X187482687Y-63342106D01*
X187465828Y-63317764D01*
X187448963Y-63293448D01*
X187432088Y-63269153D01*
X187415206Y-63244883D01*
X187398314Y-63220634D01*
X187381416Y-63196411D01*
X187364508Y-63172209D01*
X187347594Y-63148032D01*
X187330670Y-63123876D01*
X187313739Y-63099745D01*
X187296798Y-63075636D01*
X187279851Y-63051552D01*
X187262894Y-63027489D01*
X187245931Y-63003451D01*
X187228958Y-62979434D01*
X187211978Y-62955442D01*
X187194988Y-62931472D01*
X187177992Y-62907526D01*
X187160987Y-62883602D01*
X187143974Y-62859702D01*
X187126952Y-62835824D01*
X187109923Y-62811970D01*
X187092885Y-62788138D01*
X187075840Y-62764330D01*
X187058785Y-62740544D01*
X187041724Y-62716782D01*
X187024653Y-62693041D01*
X187007575Y-62669325D01*
X186990488Y-62645631D01*
X186973394Y-62621960D01*
X186956290Y-62598311D01*
X186939180Y-62574687D01*
X186922060Y-62551084D01*
X186904933Y-62527505D01*
X186887797Y-62503947D01*
X186870654Y-62480414D01*
X186853502Y-62456902D01*
X186836343Y-62433414D01*
X186819174Y-62409947D01*
X186801998Y-62386505D01*
X186784813Y-62363084D01*
X186767621Y-62339687D01*
X186750420Y-62316311D01*
X186733212Y-62292960D01*
X186715994Y-62269629D01*
X186698770Y-62246323D01*
X186681536Y-62223038D01*
X186664296Y-62199777D01*
X186647045Y-62176536D01*
X186629788Y-62153321D01*
X186612522Y-62130126D01*
X186595249Y-62106955D01*
X186577966Y-62083805D01*
X186560676Y-62060679D01*
X186543377Y-62037574D01*
X186526072Y-62014494D01*
X186508756Y-61991434D01*
X186491434Y-61968398D01*
X186474103Y-61945383D01*
X186456764Y-61922392D01*
X186439416Y-61899422D01*
X186422062Y-61876476D01*
X186404697Y-61853550D01*
X186387327Y-61830649D01*
X186369946Y-61807768D01*
X186352559Y-61784911D01*
X186335162Y-61762075D01*
X186317759Y-61739263D01*
X186300346Y-61716472D01*
X186282926Y-61693704D01*
X186265496Y-61670957D01*
X186248061Y-61648234D01*
X186230615Y-61625531D01*
X186213163Y-61602853D01*
X186195701Y-61580195D01*
X186178232Y-61557561D01*
X186160754Y-61534947D01*
X186143269Y-61512357D01*
X186125774Y-61489788D01*
X186108273Y-61467242D01*
X186090762Y-61444717D01*
X186073245Y-61422216D01*
X186055718Y-61399734D01*
X186038184Y-61377277D01*
X186020641Y-61354840D01*
X186003091Y-61332427D01*
X185985531Y-61310034D01*
X185967965Y-61287665D01*
X185950389Y-61265316D01*
X185932806Y-61242991D01*
X185915214Y-61220686D01*
X185897615Y-61198405D01*
X185880007Y-61176144D01*
X185862392Y-61153907D01*
X185844767Y-61131689D01*
X185827135Y-61109496D01*
X185809494Y-61087322D01*
X185791846Y-61065173D01*
X185774189Y-61043043D01*
X185756525Y-61020937D01*
X185738851Y-60998851D01*
X185721170Y-60976789D01*
X185703480Y-60954746D01*
X185685784Y-60932727D01*
X185668077Y-60910728D01*
X185650364Y-60888753D01*
X185632641Y-60866797D01*
X185614912Y-60844866D01*
X185597173Y-60822953D01*
X185579428Y-60801065D01*
X185561672Y-60779196D01*
X185543910Y-60757351D01*
X185526138Y-60735526D01*
X185508360Y-60713724D01*
X185490572Y-60691942D01*
X185472778Y-60670183D01*
X185454973Y-60648444D01*
X185437162Y-60626729D01*
X185419342Y-60605033D01*
X185401514Y-60583361D01*
X185383677Y-60561708D01*
X185365834Y-60540079D01*
X185347980Y-60518469D01*
X185330120Y-60496883D01*
X185312251Y-60475316D01*
X185294374Y-60453773D01*
X185276488Y-60432249D01*
X185258596Y-60410749D01*
X185240693Y-60389268D01*
X185222784Y-60367810D01*
X185204865Y-60346372D01*
X185186940Y-60324958D01*
X185169005Y-60303562D01*
X185151063Y-60282190D01*
X185133112Y-60260837D01*
X185115154Y-60239508D01*
X185097186Y-60218198D01*
X185079211Y-60196912D01*
X185061227Y-60175644D01*
X185043236Y-60154400D01*
X185025235Y-60133175D01*
X185007228Y-60111973D01*
X184989211Y-60090791D01*
X184971188Y-60069632D01*
X184953154Y-60048492D01*
X184935114Y-60027375D01*
X184917064Y-60006277D01*
X184899008Y-59985203D01*
X184880941Y-59964147D01*
X184862869Y-59943115D01*
X184844786Y-59922102D01*
X184826697Y-59901112D01*
X184808598Y-59880141D01*
X184790492Y-59859194D01*
X184772376Y-59838265D01*
X184754255Y-59817360D01*
X184736122Y-59796473D01*
X184717984Y-59775609D01*
X184699835Y-59754765D01*
X184681681Y-59733943D01*
X184645345Y-59692361D01*
X184608975Y-59650863D01*
X184572573Y-59609448D01*
X184536138Y-59568118D01*
X184499670Y-59526870D01*
X184463170Y-59485706D01*
X184426636Y-59444626D01*
X184390069Y-59403628D01*
X184353469Y-59362714D01*
X184316836Y-59321883D01*
X184280170Y-59281134D01*
X184243471Y-59240469D01*
X184206739Y-59199886D01*
X184169974Y-59159385D01*
X184133176Y-59118967D01*
X184096344Y-59078632D01*
X184059480Y-59038379D01*
X184022582Y-58998208D01*
X183985652Y-58958119D01*
X183948687Y-58918112D01*
X183911690Y-58878186D01*
X183874660Y-58838343D01*
X183837596Y-58798581D01*
X183800499Y-58758901D01*
X183763369Y-58719302D01*
X183726205Y-58679785D01*
X183689008Y-58640349D01*
X183651778Y-58600994D01*
X183614514Y-58561720D01*
X183577217Y-58522527D01*
X183539887Y-58483415D01*
X183502523Y-58444384D01*
X183465125Y-58405433D01*
X183427694Y-58366563D01*
X183390230Y-58327773D01*
X183352732Y-58289064D01*
X183315201Y-58250435D01*
X183277635Y-58211886D01*
X183240037Y-58173417D01*
X183202404Y-58135028D01*
X183164738Y-58096719D01*
X183127039Y-58058490D01*
X183089305Y-58020341D01*
X183051538Y-57982271D01*
X183013737Y-57944280D01*
X182975903Y-57906369D01*
X182938034Y-57868538D01*
X182900132Y-57830785D01*
X182862196Y-57793112D01*
X182824226Y-57755517D01*
X182786222Y-57718002D01*
X182748184Y-57680565D01*
X182710112Y-57643207D01*
X182672006Y-57605928D01*
X182633866Y-57568727D01*
X182595692Y-57531605D01*
X182557484Y-57494561D01*
X182519242Y-57457595D01*
X182480965Y-57420708D01*
X182442655Y-57383899D01*
X182404310Y-57347167D01*
X182365931Y-57310514D01*
X182327517Y-57273938D01*
X182289070Y-57237440D01*
X182250588Y-57201020D01*
X182212071Y-57164677D01*
X182173521Y-57128412D01*
X182134935Y-57092224D01*
X182096316Y-57056113D01*
X182057661Y-57020079D01*
X182018973Y-56984123D01*
X181980249Y-56948244D01*
X181941491Y-56912441D01*
X181902699Y-56876715D01*
X181863871Y-56841067D01*
X181825009Y-56805494D01*
X181786113Y-56769999D01*
X181747181Y-56734579D01*
X181708215Y-56699237D01*
X181669213Y-56663970D01*
X181630177Y-56628780D01*
X181591106Y-56593666D01*
X181552000Y-56558628D01*
X181512859Y-56523666D01*
X181473683Y-56488779D01*
X181434471Y-56453969D01*
X181395225Y-56419234D01*
X181355943Y-56384575D01*
X181316627Y-56349992D01*
X181277275Y-56315484D01*
X181237887Y-56281051D01*
X181198464Y-56246693D01*
X181159006Y-56212411D01*
X181119513Y-56178204D01*
X181079984Y-56144072D01*
X181040420Y-56110015D01*
X181000820Y-56076033D01*
X180961184Y-56042126D01*
X180921513Y-56008293D01*
X180881806Y-55974535D01*
X180842063Y-55940852D01*
X180802285Y-55907243D01*
X180762471Y-55873709D01*
X180722621Y-55840249D01*
X180682735Y-55806863D01*
X180642813Y-55773551D01*
X180602855Y-55740313D01*
X180562861Y-55707150D01*
X180522831Y-55674060D01*
X180482765Y-55641044D01*
X180442663Y-55608102D01*
X180402524Y-55575234D01*
X180362349Y-55542439D01*
X180322138Y-55509718D01*
X180281891Y-55477071D01*
X180241607Y-55444496D01*
X180201286Y-55411996D01*
X180160929Y-55379568D01*
X180120536Y-55347213D01*
X180080106Y-55314932D01*
X180039639Y-55282724D01*
X179999136Y-55250588D01*
X179958595Y-55218526D01*
X179918018Y-55186536D01*
X179877405Y-55154619D01*
X179836754Y-55122775D01*
X179796066Y-55091003D01*
X179755341Y-55059304D01*
X179714579Y-55027677D01*
X179673780Y-54996123D01*
X179632944Y-54964641D01*
X179592070Y-54933231D01*
X179551159Y-54901893D01*
X179510211Y-54870627D01*
X179469225Y-54839434D01*
X179428202Y-54808312D01*
X179387142Y-54777262D01*
X179346043Y-54746285D01*
X179304907Y-54715378D01*
X179263734Y-54684544D01*
X179222523Y-54653781D01*
X179181273Y-54623089D01*
X179139986Y-54592470D01*
X179098662Y-54561921D01*
X179057299Y-54531444D01*
X179015898Y-54501038D01*
X178974458Y-54470703D01*
X178932981Y-54440440D01*
X178891466Y-54410247D01*
X178849912Y-54380126D01*
X178808320Y-54350075D01*
X178766689Y-54320095D01*
X178725020Y-54290186D01*
X178683312Y-54260348D01*
X178641566Y-54230581D01*
X178599781Y-54200884D01*
X178557958Y-54171258D01*
X178516095Y-54141702D01*
X178474194Y-54112216D01*
X178432254Y-54082801D01*
X178390275Y-54053457D01*
X178348256Y-54024182D01*
X178306199Y-53994978D01*
X178264102Y-53965844D01*
X178221966Y-53936779D01*
X178179791Y-53907785D01*
X178137577Y-53878861D01*
X178095322Y-53850007D01*
X178053029Y-53821222D01*
X178010696Y-53792507D01*
X177968323Y-53763862D01*
X177925910Y-53735287D01*
X177883458Y-53706781D01*
X177840965Y-53678344D01*
X177798433Y-53649977D01*
X177755861Y-53621680D01*
X177713248Y-53593452D01*
X177670596Y-53565293D01*
X177627903Y-53537203D01*
X177585170Y-53509183D01*
X177542396Y-53481231D01*
X177499582Y-53453349D01*
X177456728Y-53425536D01*
X177413833Y-53397791D01*
X177370897Y-53370116D01*
X177327920Y-53342509D01*
X177284903Y-53314971D01*
X177241844Y-53287502D01*
X177198745Y-53260102D01*
X177155604Y-53232770D01*
X177112423Y-53205506D01*
X177069200Y-53178312D01*
X177025936Y-53151185D01*
X176982630Y-53124127D01*
X176939283Y-53097138D01*
X176895895Y-53070217D01*
X176852465Y-53043364D01*
X176808993Y-53016579D01*
X176765479Y-52989862D01*
X176721923Y-52963214D01*
X176678326Y-52936633D01*
X176634686Y-52910121D01*
X176591005Y-52883676D01*
X176547281Y-52857300D01*
X176503514Y-52830991D01*
X176459706Y-52804750D01*
X176415855Y-52778576D01*
X176371961Y-52752471D01*
X176328025Y-52726433D01*
X176284046Y-52700463D01*
X176240024Y-52674560D01*
X176195960Y-52648725D01*
X176151852Y-52622957D01*
X176107701Y-52597257D01*
X176063507Y-52571624D01*
X176019270Y-52546058D01*
X175974990Y-52520560D01*
X175930666Y-52495129D01*
X175886298Y-52469765D01*
X175841887Y-52444468D01*
X175797432Y-52419239D01*
X175752934Y-52394076D01*
X175708391Y-52368981D01*
X175663805Y-52343952D01*
X175619174Y-52318991D01*
X175574499Y-52294096D01*
X175529780Y-52269268D01*
X175485017Y-52244507D01*
X175440209Y-52219812D01*
X175395357Y-52195185D01*
X175350460Y-52170624D01*
X175305518Y-52146129D01*
X175260531Y-52121702D01*
X175215499Y-52097341D01*
X175170422Y-52073046D01*
X175125301Y-52048818D01*
X175080133Y-52024656D01*
X175034921Y-52000561D01*
X174989663Y-51976532D01*
X174944359Y-51952569D01*
X174899010Y-51928673D01*
X174853615Y-51904842D01*
X174808174Y-51881078D01*
X174762687Y-51857381D01*
X174717154Y-51833749D01*
X174671575Y-51810183D01*
X174625949Y-51786684D01*
X174580277Y-51763250D01*
X174534559Y-51739883D01*
X174488794Y-51716581D01*
X174442982Y-51693346D01*
X174397123Y-51670176D01*
X174351218Y-51647072D01*
X174305265Y-51624034D01*
X174259265Y-51601061D01*
X174213218Y-51578155D01*
X174167124Y-51555314D01*
X174120981Y-51532538D01*
X174074792Y-51509829D01*
X174028554Y-51487185D01*
X173982269Y-51464606D01*
X173935936Y-51442093D01*
X173889554Y-51419646D01*
X173843125Y-51397264D01*
X173796647Y-51374947D01*
X173750120Y-51352696D01*
X173703545Y-51330511D01*
X173656921Y-51308390D01*
X173610249Y-51286335D01*
X173563527Y-51264345D01*
X173516757Y-51242421D01*
X173469937Y-51220562D01*
X173423068Y-51198768D01*
X173376150Y-51177039D01*
X173329182Y-51155375D01*
X173282164Y-51133776D01*
X173235097Y-51112243D01*
X173187979Y-51090774D01*
X173140812Y-51069371D01*
X173093594Y-51048032D01*
X173046326Y-51026759D01*
X172999007Y-51005550D01*
X172951638Y-50984407D01*
X172904218Y-50963328D01*
X172856748Y-50942314D01*
X172809226Y-50921365D01*
X172761653Y-50900481D01*
X172714029Y-50879662D01*
X172666354Y-50858907D01*
X172618627Y-50838217D01*
X172570848Y-50817592D01*
X172523017Y-50797032D01*
X172475135Y-50776536D01*
X172427200Y-50756105D01*
X172379214Y-50735738D01*
X172331174Y-50715437D01*
X172283083Y-50695199D01*
X172234938Y-50675027D01*
X172186741Y-50654918D01*
X172138491Y-50634875D01*
X172090188Y-50614896D01*
X172041831Y-50594981D01*
X171993421Y-50575131D01*
X171944958Y-50555345D01*
X171896441Y-50535624D01*
X171847870Y-50515967D01*
X171799245Y-50496374D01*
X171750565Y-50476846D01*
X171701832Y-50457382D01*
X171653044Y-50437982D01*
X171604201Y-50418647D01*
X171555304Y-50399376D01*
X171506351Y-50380169D01*
X171457344Y-50361027D01*
X171408281Y-50341948D01*
X171359163Y-50322934D01*
X171309989Y-50303984D01*
X171260759Y-50285099D01*
X171211474Y-50266277D01*
X171162132Y-50247520D01*
X171112734Y-50228826D01*
X171063280Y-50210197D01*
X171013769Y-50191632D01*
X170964201Y-50173131D01*
X170914576Y-50154694D01*
X170864895Y-50136321D01*
X170815156Y-50118012D01*
X170765359Y-50099767D01*
X170715505Y-50081586D01*
X170665593Y-50063470D01*
X170615623Y-50045417D01*
X170565594Y-50027428D01*
X170515508Y-50009503D01*
X170465363Y-49991642D01*
X170415159Y-49973845D01*
X170364896Y-49956111D01*
X170314574Y-49938442D01*
X170264192Y-49920837D01*
X170213752Y-49903295D01*
X170163251Y-49885817D01*
X170112691Y-49868403D01*
X170062070Y-49851053D01*
X170011389Y-49833767D01*
X169960648Y-49816545D01*
X169909846Y-49799386D01*
X169858983Y-49782292D01*
X169808059Y-49765261D01*
X169757074Y-49748294D01*
X169706027Y-49731390D01*
X169654919Y-49714551D01*
X169603749Y-49697775D01*
X169552516Y-49681063D01*
X169501222Y-49664414D01*
X169449864Y-49647830D01*
X169398444Y-49631309D01*
X169346961Y-49614852D01*
X169295415Y-49598458D01*
X169243805Y-49582128D01*
X169192132Y-49565862D01*
X169140395Y-49549660D01*
X169088593Y-49533521D01*
X169036728Y-49517446D01*
X168984797Y-49501435D01*
X168932802Y-49485487D01*
X168880742Y-49469603D01*
X168828617Y-49453782D01*
X168776426Y-49438025D01*
X168724170Y-49422332D01*
X168671847Y-49406703D01*
X168619459Y-49391137D01*
X168567003Y-49375635D01*
X168514481Y-49360196D01*
X168461893Y-49344821D01*
X168409237Y-49329510D01*
X168356513Y-49314262D01*
X168303722Y-49299078D01*
X168250862Y-49283957D01*
X168197935Y-49268900D01*
X168144939Y-49253907D01*
X168091874Y-49238977D01*
X168038740Y-49224111D01*
X167985536Y-49209308D01*
X167932264Y-49194569D01*
X167878921Y-49179894D01*
X167825508Y-49165282D01*
X167772024Y-49150733D01*
X167718470Y-49136249D01*
X167664845Y-49121828D01*
X167611149Y-49107470D01*
X167557381Y-49093176D01*
X167503541Y-49078946D01*
X167449629Y-49064779D01*
X167395644Y-49050676D01*
X167341586Y-49036636D01*
X167287456Y-49022660D01*
X167233252Y-49008748D01*
X167178974Y-48994899D01*
X167124622Y-48981114D01*
X167070196Y-48967392D01*
X167015695Y-48953734D01*
X166961120Y-48940139D01*
X166906468Y-48926608D01*
X166851742Y-48913141D01*
X166796939Y-48899737D01*
X166742059Y-48886397D01*
X166687103Y-48873120D01*
X166632070Y-48859907D01*
X166576960Y-48846758D01*
X166521772Y-48833672D01*
X166466505Y-48820650D01*
X166411160Y-48807691D01*
X166355737Y-48794796D01*
X166300234Y-48781965D01*
X166244651Y-48769197D01*
X166188989Y-48756493D01*
X166133246Y-48743852D01*
X166077423Y-48731275D01*
X166021518Y-48718762D01*
X165965532Y-48706312D01*
X165909463Y-48693926D01*
X165853313Y-48681604D01*
X165797080Y-48669345D01*
X165740763Y-48657150D01*
X165684363Y-48645019D01*
X165627879Y-48632951D01*
X165571310Y-48620947D01*
X165514657Y-48609007D01*
X165457918Y-48597130D01*
X165401094Y-48585317D01*
X165344183Y-48573568D01*
X165287186Y-48561882D01*
X165230101Y-48550260D01*
X165172929Y-48538702D01*
X165115668Y-48527207D01*
X165058320Y-48515776D01*
X165000882Y-48504409D01*
X164943354Y-48493106D01*
X164885737Y-48481866D01*
X164828029Y-48470690D01*
X164770229Y-48459578D01*
X164712339Y-48448529D01*
X164654356Y-48437545D01*
X164596280Y-48426624D01*
X164538112Y-48415767D01*
X164479849Y-48404973D01*
X164421492Y-48394244D01*
X164363041Y-48383578D01*
X164304494Y-48372976D01*
X164245851Y-48362438D01*
X164187111Y-48351963D01*
X164128274Y-48341553D01*
X164069340Y-48331206D01*
X164010307Y-48320923D01*
X163951174Y-48310704D01*
X163891943Y-48300549D01*
X163832611Y-48290458D01*
X163773178Y-48280430D01*
X163713643Y-48270466D01*
X163654006Y-48260567D01*
X163594266Y-48250731D01*
X163534423Y-48240959D01*
X163474475Y-48231251D01*
X163414422Y-48221607D01*
X163354263Y-48212027D01*
X163293998Y-48202510D01*
X163233625Y-48193058D01*
X163173144Y-48183669D01*
X163112555Y-48174345D01*
X163051856Y-48165084D01*
X162991047Y-48155888D01*
X162930126Y-48146755D01*
X162869093Y-48137687D01*
X162807948Y-48128682D01*
X162746689Y-48119741D01*
X162685315Y-48110865D01*
X162623826Y-48102052D01*
X162562221Y-48093304D01*
X162500498Y-48084619D01*
X162438658Y-48075999D01*
X162376698Y-48067442D01*
X162314618Y-48058950D01*
X162252417Y-48050521D01*
X162190094Y-48042157D01*
X162127648Y-48033857D01*
X162065078Y-48025621D01*
X162002383Y-48017448D01*
X161939561Y-48009340D01*
X161876613Y-48001297D01*
X161813536Y-47993317D01*
X161750329Y-47985401D01*
X161686992Y-47977550D01*
X161623523Y-47969762D01*
X161559921Y-47962039D01*
X161496184Y-47954380D01*
X161432313Y-47946785D01*
X161368304Y-47939254D01*
X161304157Y-47931787D01*
X161239871Y-47924385D01*
X161175445Y-47917046D01*
X161110876Y-47909772D01*
X161046163Y-47902562D01*
X160981306Y-47895416D01*
X160916302Y-47888335D01*
X160851150Y-47881317D01*
X160785849Y-47874364D01*
X160720397Y-47867475D01*
X160654792Y-47860650D01*
X160589032Y-47853890D01*
X160523117Y-47847194D01*
X160457044Y-47840562D01*
X160390812Y-47833994D01*
X160324419Y-47827490D01*
X160257862Y-47821051D01*
X160191140Y-47814676D01*
X160124252Y-47808365D01*
X160057195Y-47802118D01*
X159989967Y-47795936D01*
X159922565Y-47789818D01*
X159854989Y-47783764D01*
X159787236Y-47777774D01*
X159719303Y-47771849D01*
X159651188Y-47765988D01*
X159582889Y-47760191D01*
X159514404Y-47754459D01*
X159445729Y-47748790D01*
X159376863Y-47743186D01*
X159307803Y-47737647D01*
X159238546Y-47732171D01*
X159169089Y-47726760D01*
X159099429Y-47721413D01*
X159029564Y-47716130D01*
X158959491Y-47710912D01*
X158889206Y-47705758D01*
X158818706Y-47700668D01*
X158747988Y-47695642D01*
X158677049Y-47690681D01*
X158605884Y-47685784D01*
X158534491Y-47680951D01*
X158462866Y-47676182D01*
X158391005Y-47671478D01*
X158318903Y-47666838D01*
X158246558Y-47662262D01*
X158173964Y-47657750D01*
X158101117Y-47653303D01*
X158028012Y-47648919D01*
X157954646Y-47644600D01*
X157881013Y-47640345D01*
X157807107Y-47636154D01*
X157732925Y-47632028D01*
X157658460Y-47627965D01*
X157583707Y-47623967D01*
X157508659Y-47620033D01*
X157433312Y-47616163D01*
X157357658Y-47612357D01*
X157281692Y-47608615D01*
X157205405Y-47604937D01*
X157128792Y-47601323D01*
X157051845Y-47597773D01*
X156974556Y-47594288D01*
X156896916Y-47590866D01*
X156818919Y-47587508D01*
X156740554Y-47584215D01*
X156661813Y-47580985D01*
X156582687Y-47577819D01*
X156503164Y-47574717D01*
X156423234Y-47571679D01*
X156342887Y-47568705D01*
X156262111Y-47565794D01*
X156180893Y-47562948D01*
X156099221Y-47560165D01*
X156017081Y-47557446D01*
X155934458Y-47554790D01*
X155851338Y-47552199D01*
X155767704Y-47549670D01*
X155683540Y-47547206D01*
X155598828Y-47544805D01*
X155513547Y-47542468D01*
X155427679Y-47540194D01*
X155341200Y-47537983D01*
X155254089Y-47535836D01*
X155166321Y-47533753D01*
X155077868Y-47531732D01*
X154988702Y-47529775D01*
X154898794Y-47527881D01*
X154808109Y-47526051D01*
X154716612Y-47524283D01*
X154624264Y-47522578D01*
X154531025Y-47520937D01*
X154436847Y-47519358D01*
X154341680Y-47517842D01*
X154245471Y-47516389D01*
X154148159Y-47514999D01*
X154049676Y-47513671D01*
X153949950Y-47512406D01*
X153848898Y-47511203D01*
X153746427Y-47510062D01*
X153642433Y-47508984D01*
X153536799Y-47507968D01*
X153429389Y-47507014D01*
X153320050Y-47506122D01*
X153208601Y-47505292D01*
X153094831Y-47504523D01*
X152978492Y-47503816D01*
X152859284Y-47503170D01*
X152736841Y-47502585D01*
X152610714Y-47502061D01*
X152480327Y-47501597D01*
X152344939Y-47501194D01*
X152203550Y-47500851D01*
X152054764Y-47500568D01*
X151896519Y-47500343D01*
X151725526Y-47500177D01*
X151535901Y-47500067D01*
X151314864Y-47500011D01*
X151044888Y-47500000D01*
M02*
