%TF.GenerationSoftware,KiCad,Pcbnew,10.0.5*%
%TF.CreationDate,2026-08-20T18:12:14-07:00*%
%TF.ProjectId,blinky,626c696e-6b79-42e6-9b69-6361645f7063,rev?*%
%TF.SameCoordinates,Original*%
%TF.FileFunction,Soldermask,Top*%
%TF.FilePolarity,Negative*%
%FSLAX46Y46*%
G04 Gerber Fmt 4.6, Leading zero omitted, Abs format (unit mm)*
G04 Created by KiCad (PCBNEW 10.0.5) date 2026-08-20 18:12:14*
%MOMM*%
%LPD*%
G01*
G04 APERTURE LIST*
G04 Aperture macros list*
%AMRoundRect*
0 Rectangle with rounded corners*
0 $1 Rounding radius*
0 $2 $3 $4 $5 $6 $7 $8 $9 X,Y pos of 4 corners*
0 Add a 4 corners polygon primitive as box body*
4,1,4,$2,$3,$4,$5,$6,$7,$8,$9,$2,$3,0*
0 Add four circle primitives for the rounded corners*
1,1,$1+$1,$2,$3*
1,1,$1+$1,$4,$5*
1,1,$1+$1,$6,$7*
1,1,$1+$1,$8,$9*
0 Add four rect primitives between the rounded corners*
20,1,$1+$1,$2,$3,$4,$5,0*
20,1,$1+$1,$4,$5,$6,$7,0*
20,1,$1+$1,$6,$7,$8,$9,0*
20,1,$1+$1,$8,$9,$2,$3,0*%
G04 Aperture macros list end*
%ADD10R,1.700000X1.700000*%
%ADD11C,1.700000*%
%ADD12C,1.600000*%
%ADD13RoundRect,0.412500X-0.412500X-0.412500X0.412500X-0.412500X0.412500X0.412500X-0.412500X0.412500X0*%
%ADD14C,1.650000*%
%ADD15RoundRect,0.250000X-0.550000X-0.550000X0.550000X-0.550000X0.550000X0.550000X-0.550000X0.550000X0*%
%ADD16C,2.000000*%
%ADD17R,1.295400X1.295400*%
%ADD18C,1.295400*%
%ADD19R,1.800000X1.800000*%
%ADD20C,1.800000*%
G04 APERTURE END LIST*
D10*
%TO.C,J1*%
X170500000Y-114500000D03*
D11*
X170500000Y-117040000D03*
%TD*%
D10*
%TO.C,J2*%
X158500000Y-115500000D03*
%TD*%
D12*
%TO.C,R2*%
X148380000Y-67050000D03*
X156000000Y-67050000D03*
%TD*%
D13*
%TO.C,R3*%
X140920000Y-112500000D03*
D14*
X143460000Y-112500000D03*
X146000000Y-112500000D03*
%TD*%
D15*
%TO.C,U2*%
X129000000Y-112190000D03*
D12*
X129000000Y-114730000D03*
X129000000Y-117270000D03*
X129000000Y-119810000D03*
X136620000Y-119810000D03*
X136620000Y-117270000D03*
X136620000Y-114730000D03*
X136620000Y-112190000D03*
%TD*%
D15*
%TO.C,C2*%
X121500000Y-111000000D03*
D12*
X123500000Y-111000000D03*
%TD*%
D16*
%TO.C,C1*%
X115500000Y-113000000D03*
X115500000Y-118000000D03*
%TD*%
D17*
%TO.C,U1*%
X156620000Y-104660000D03*
D18*
X156620000Y-102120000D03*
X156620000Y-99580000D03*
X156620000Y-97040000D03*
X156620000Y-94500000D03*
X156620000Y-91960000D03*
X156620000Y-89420000D03*
X156620000Y-86880000D03*
X149000000Y-86880000D03*
X149000000Y-89420000D03*
X149000000Y-91960000D03*
X149000000Y-94500000D03*
X149000000Y-97040000D03*
X149000000Y-99580000D03*
X149000000Y-102120000D03*
X149000000Y-104660000D03*
%TD*%
D12*
%TO.C,R1*%
X148380000Y-72000000D03*
X156000000Y-72000000D03*
%TD*%
D19*
%TO.C,D3*%
X190540000Y-81000000D03*
D20*
X188000000Y-81000000D03*
%TD*%
D19*
%TO.C,D4*%
X164770000Y-52000000D03*
D20*
X162230000Y-52000000D03*
%TD*%
D19*
%TO.C,D1*%
X194770000Y-98500000D03*
D20*
X192230000Y-98500000D03*
%TD*%
D19*
%TO.C,D9*%
X115960000Y-63000000D03*
D20*
X118500000Y-63000000D03*
%TD*%
D19*
%TO.C,D2*%
X194540000Y-116000000D03*
D20*
X192000000Y-116000000D03*
%TD*%
D19*
%TO.C,D5*%
X108730000Y-79500000D03*
D20*
X111270000Y-79500000D03*
%TD*%
D19*
%TO.C,D8*%
X183770000Y-63000000D03*
D20*
X181230000Y-63000000D03*
%TD*%
D19*
%TO.C,D10*%
X104960000Y-98500000D03*
D20*
X107500000Y-98500000D03*
%TD*%
D19*
%TO.C,D7*%
X134500000Y-52000000D03*
D20*
X137040000Y-52000000D03*
%TD*%
D19*
%TO.C,D6*%
X103960000Y-116000000D03*
D20*
X106500000Y-116000000D03*
%TD*%
M02*
