M48
; DRILL file KiCad 10.0.5 date 2026-08-20T18:12:32
; FORMAT={-:-/ absolute / metric / decimal}
; #@! TF.CreationDate,2026-08-20T18:12:32-07:00
; #@! TF.GenerationSoftware,Kicad,Pcbnew,10.0.5
; #@! TF.FileFunction,Plated,1,2,PTH
FMAT,2
METRIC
; #@! TA.AperFunction,Plated,PTH,ComponentDrill
T1C0.787
; #@! TA.AperFunction,Plated,PTH,ComponentDrill
T2C0.800
; #@! TA.AperFunction,Plated,PTH,ComponentDrill
T3C0.850
; #@! TA.AperFunction,Plated,PTH,ComponentDrill
T4C0.900
; #@! TA.AperFunction,Plated,PTH,ComponentDrill
T5C1.000
%
G90
G05
T1
X149.0Y-86.88
X149.0Y-89.42
X149.0Y-91.96
X149.0Y-94.5
X149.0Y-97.04
X149.0Y-99.58
X149.0Y-102.12
X149.0Y-104.66
X156.62Y-86.88
X156.62Y-89.42
X156.62Y-91.96
X156.62Y-94.5
X156.62Y-97.04
X156.62Y-99.58
X156.62Y-102.12
X156.62Y-104.66
T2
X121.5Y-111.0
X123.5Y-111.0
X129.0Y-112.19
X129.0Y-114.73
X129.0Y-117.27
X129.0Y-119.81
X136.62Y-112.19
X136.62Y-114.73
X136.62Y-117.27
X136.62Y-119.81
X148.38Y-67.05
X148.38Y-72.0
X156.0Y-67.05
X156.0Y-72.0
T3
X140.92Y-112.5
X143.46Y-112.5
X146.0Y-112.5
T4
X103.96Y-116.0
X104.96Y-98.5
X106.5Y-116.0
X107.5Y-98.5
X108.73Y-79.5
X111.27Y-79.5
X115.96Y-63.0
X118.5Y-63.0
X134.5Y-52.0
X137.04Y-52.0
X162.23Y-52.0
X164.77Y-52.0
X181.23Y-63.0
X183.77Y-63.0
X188.0Y-81.0
X190.54Y-81.0
X192.0Y-116.0
X192.23Y-98.5
X194.54Y-116.0
X194.77Y-98.5
T5
X115.5Y-113.0
X115.5Y-118.0
X158.5Y-115.5
X170.5Y-114.5
X170.5Y-117.04
M30
