%TF.GenerationSoftware,KiCad,Pcbnew,10.0.5*%
%TF.CreationDate,2026-08-20T18:12:14-07:00*%
%TF.ProjectId,blinky,626c696e-6b79-42e6-9b69-6361645f7063,rev?*%
%TF.SameCoordinates,Original*%
%TF.FileFunction,Copper,L1,Top*%
%TF.FilePolarity,Positive*%
%FSLAX46Y46*%
G04 Gerber Fmt 4.6, Leading zero omitted, Abs format (unit mm)*
G04 Created by KiCad (PCBNEW 10.0.5) date 2026-08-20 18:12:14*
%MOMM*%
%LPD*%
G01*
G04 APERTURE LIST*
G04 Aperture macros list*
%AMRoundRect*
0 Rectangle with rounded corners*
0 $1 Rounding radius*
0 $2 $3 $4 $5 $6 $7 $8 $9 X,Y pos of 4 corners*
0 Add a 4 corners polygon primitive as box body*
4,1,4,$2,$3,$4,$5,$6,$7,$8,$9,$2,$3,0*
0 Add four circle primitives for the rounded corners*
1,1,$1+$1,$2,$3*
1,1,$1+$1,$4,$5*
1,1,$1+$1,$6,$7*
1,1,$1+$1,$8,$9*
0 Add four rect primitives between the rounded corners*
20,1,$1+$1,$2,$3,$4,$5,0*
20,1,$1+$1,$4,$5,$6,$7,0*
20,1,$1+$1,$6,$7,$8,$9,0*
20,1,$1+$1,$8,$9,$2,$3,0*%
G04 Aperture macros list end*
%TA.AperFunction,ComponentPad*%
%ADD10R,1.700000X1.700000*%
%TD*%
%TA.AperFunction,ComponentPad*%
%ADD11C,1.700000*%
%TD*%
%TA.AperFunction,ComponentPad*%
%ADD12C,1.600000*%
%TD*%
%TA.AperFunction,ComponentPad*%
%ADD13RoundRect,0.412500X-0.412500X-0.412500X0.412500X-0.412500X0.412500X0.412500X-0.412500X0.412500X0*%
%TD*%
%TA.AperFunction,ComponentPad*%
%ADD14C,1.650000*%
%TD*%
%TA.AperFunction,ComponentPad*%
%ADD15RoundRect,0.250000X-0.550000X-0.550000X0.550000X-0.550000X0.550000X0.550000X-0.550000X0.550000X0*%
%TD*%
%TA.AperFunction,ComponentPad*%
%ADD16C,2.000000*%
%TD*%
%TA.AperFunction,ComponentPad*%
%ADD17R,1.295400X1.295400*%
%TD*%
%TA.AperFunction,ComponentPad*%
%ADD18C,1.295400*%
%TD*%
%TA.AperFunction,ComponentPad*%
%ADD19R,1.800000X1.800000*%
%TD*%
%TA.AperFunction,ComponentPad*%
%ADD20C,1.800000*%
%TD*%
%TA.AperFunction,Conductor*%
%ADD21C,0.200000*%
%TD*%
G04 APERTURE END LIST*
D10*
%TO.P,J1,1,Pin_1_1*%
%TO.N,+5V*%
X170500000Y-114500000D03*
D11*
%TO.P,J1,2,Pin_2_2*%
%TO.N,GND*%
X170500000Y-117040000D03*
%TD*%
D10*
%TO.P,J2,1,Pin_1_1*%
%TO.N,out*%
X158500000Y-115500000D03*
%TD*%
D12*
%TO.P,R2,1*%
%TO.N,Net-(D1-K)*%
X148380000Y-67050000D03*
%TO.P,R2,2*%
%TO.N,GND*%
X156000000Y-67050000D03*
%TD*%
D13*
%TO.P,R3,1,1_1*%
%TO.N,Net-(U2-DISCH)*%
X140920000Y-112500000D03*
D14*
%TO.P,R3,2,2_2*%
X143460000Y-112500000D03*
%TO.P,R3,3,3_3*%
%TO.N,tr*%
X146000000Y-112500000D03*
%TD*%
D15*
%TO.P,U2,1,GND_1*%
%TO.N,GND*%
X129000000Y-112190000D03*
D12*
%TO.P,U2,2,TRIG_2*%
%TO.N,tr*%
X129000000Y-114730000D03*
%TO.P,U2,3,OUT_3*%
%TO.N,out*%
X129000000Y-117270000D03*
%TO.P,U2,4,~{RST}_4*%
%TO.N,+5V*%
X129000000Y-119810000D03*
%TO.P,U2,5,CONT_5*%
%TO.N,Net-(U2-CONT)*%
X136620000Y-119810000D03*
%TO.P,U2,6,THRES_6*%
%TO.N,tr*%
X136620000Y-117270000D03*
%TO.P,U2,7,DISCH_7*%
%TO.N,Net-(U2-DISCH)*%
X136620000Y-114730000D03*
%TO.P,U2,8,VCC_8*%
%TO.N,+5V*%
X136620000Y-112190000D03*
%TD*%
D15*
%TO.P,C2,1*%
%TO.N,tr*%
X121500000Y-111000000D03*
D12*
%TO.P,C2,2*%
%TO.N,GND*%
X123500000Y-111000000D03*
%TD*%
D16*
%TO.P,C1,1*%
%TO.N,GND*%
X115500000Y-113000000D03*
%TO.P,C1,2*%
%TO.N,Net-(U2-CONT)*%
X115500000Y-118000000D03*
%TD*%
D17*
%TO.P,U1,1,Q5_1*%
%TO.N,Net-(D6-A)*%
X156620000Y-104660000D03*
D18*
%TO.P,U1,2,Q1_2*%
%TO.N,Net-(D2-A)*%
X156620000Y-102120000D03*
%TO.P,U1,3,Q0_3*%
%TO.N,Net-(D1-A)*%
X156620000Y-99580000D03*
%TO.P,U1,4,Q2_4*%
%TO.N,Net-(D3-A)*%
X156620000Y-97040000D03*
%TO.P,U1,5,Q6_5*%
%TO.N,Net-(D7-A)*%
X156620000Y-94500000D03*
%TO.P,U1,6,Q7_6*%
%TO.N,Net-(D8-A)*%
X156620000Y-91960000D03*
%TO.P,U1,7,Q3_7*%
%TO.N,Net-(D4-A)*%
X156620000Y-89420000D03*
%TO.P,U1,8,VSS_8*%
%TO.N,GND*%
X156620000Y-86880000D03*
%TO.P,U1,9,Q8_9*%
%TO.N,Net-(D9-A)*%
X149000000Y-86880000D03*
%TO.P,U1,10,Q4_10*%
%TO.N,Net-(D5-A)*%
X149000000Y-89420000D03*
%TO.P,U1,11,Q9_11*%
%TO.N,Net-(D10-A)*%
X149000000Y-91960000D03*
%TO.P,U1,12,Cout_12*%
%TO.N,unconnected-(U1-Cout-Pad12)*%
X149000000Y-94500000D03*
%TO.P,U1,13,CKEN_13*%
%TO.N,GND*%
X149000000Y-97040000D03*
%TO.P,U1,14,CLK_14*%
%TO.N,out*%
X149000000Y-99580000D03*
%TO.P,U1,15,Reset_15*%
%TO.N,GND*%
X149000000Y-102120000D03*
%TO.P,U1,16,VDD_16*%
%TO.N,+5V*%
X149000000Y-104660000D03*
%TD*%
D12*
%TO.P,R1,1*%
%TO.N,Net-(U2-DISCH)*%
X148380000Y-72000000D03*
%TO.P,R1,2*%
%TO.N,+5V*%
X156000000Y-72000000D03*
%TD*%
D19*
%TO.P,D3,1,K_1*%
%TO.N,Net-(D1-K)*%
X190540000Y-81000000D03*
D20*
%TO.P,D3,2,A_2*%
%TO.N,Net-(D3-A)*%
X188000000Y-81000000D03*
%TD*%
D19*
%TO.P,D4,1,K_1*%
%TO.N,Net-(D1-K)*%
X164770000Y-52000000D03*
D20*
%TO.P,D4,2,A_2*%
%TO.N,Net-(D4-A)*%
X162230000Y-52000000D03*
%TD*%
D19*
%TO.P,D1,1,K_1*%
%TO.N,Net-(D1-K)*%
X194770000Y-98500000D03*
D20*
%TO.P,D1,2,A_2*%
%TO.N,Net-(D1-A)*%
X192230000Y-98500000D03*
%TD*%
D19*
%TO.P,D9,1,K_1*%
%TO.N,Net-(D1-K)*%
X115960000Y-63000000D03*
D20*
%TO.P,D9,2,A_2*%
%TO.N,Net-(D9-A)*%
X118500000Y-63000000D03*
%TD*%
D19*
%TO.P,D2,1,K_1*%
%TO.N,Net-(D1-K)*%
X194540000Y-116000000D03*
D20*
%TO.P,D2,2,A_2*%
%TO.N,Net-(D2-A)*%
X192000000Y-116000000D03*
%TD*%
D19*
%TO.P,D5,1,K_1*%
%TO.N,Net-(D1-K)*%
X108730000Y-79500000D03*
D20*
%TO.P,D5,2,A_2*%
%TO.N,Net-(D5-A)*%
X111270000Y-79500000D03*
%TD*%
D19*
%TO.P,D8,1,K_1*%
%TO.N,Net-(D1-K)*%
X183770000Y-63000000D03*
D20*
%TO.P,D8,2,A_2*%
%TO.N,Net-(D8-A)*%
X181230000Y-63000000D03*
%TD*%
D19*
%TO.P,D10,1,K_1*%
%TO.N,Net-(D1-K)*%
X104960000Y-98500000D03*
D20*
%TO.P,D10,2,A_2*%
%TO.N,Net-(D10-A)*%
X107500000Y-98500000D03*
%TD*%
D19*
%TO.P,D7,1,K_1*%
%TO.N,Net-(D1-K)*%
X134500000Y-52000000D03*
D20*
%TO.P,D7,2,A_2*%
%TO.N,Net-(D7-A)*%
X137040000Y-52000000D03*
%TD*%
D19*
%TO.P,D6,1,K_1*%
%TO.N,Net-(D1-K)*%
X103960000Y-116000000D03*
D20*
%TO.P,D6,2,A_2*%
%TO.N,Net-(D6-A)*%
X106500000Y-116000000D03*
%TD*%
%TO.N,+5V*%
D21*
X129000000Y-119810000D02*
X136620000Y-112190000D01*
X136620000Y-112190000D02*
X136620000Y-105395000D01*
X136620000Y-105395000D02*
X136500000Y-105275000D01*
X148385000Y-105275000D02*
X149000000Y-104660000D01*
X136500000Y-105275000D02*
X148385000Y-105275000D01*
%TO.N,GND*%
X152500000Y-98620000D02*
X152500000Y-93540000D01*
X170500000Y-117040000D02*
X157740000Y-117040000D01*
X129000000Y-112190000D02*
X129000000Y-110235000D01*
X148385000Y-102735000D02*
X149000000Y-102120000D01*
X157740000Y-117040000D02*
X152310000Y-111610000D01*
X124690000Y-112190000D02*
X123500000Y-111000000D01*
X129000000Y-112190000D02*
X124690000Y-112190000D01*
X136500000Y-102735000D02*
X148385000Y-102735000D01*
X149000000Y-102120000D02*
X152310000Y-98810000D01*
X129000000Y-110235000D02*
X136500000Y-102735000D01*
X152310000Y-111610000D02*
X152310000Y-98810000D01*
X152310000Y-98810000D02*
X152500000Y-98620000D01*
X152500000Y-93540000D02*
X149000000Y-97040000D01*
X152500000Y-93540000D02*
X152500000Y-91000000D01*
X152500000Y-91000000D02*
X156620000Y-86880000D01*
%TO.N,out*%
X120400000Y-111784744D02*
X125885256Y-117270000D01*
X129000000Y-104500000D02*
X126115256Y-104500000D01*
X125885256Y-117270000D02*
X129000000Y-117270000D01*
X148607449Y-96092300D02*
X148052300Y-96647449D01*
X152900000Y-91165686D02*
X156237986Y-87827700D01*
X129000000Y-103000000D02*
X132420000Y-99580000D01*
X157567700Y-87272551D02*
X157567700Y-86487449D01*
X152900000Y-109900000D02*
X152900000Y-91165686D01*
X148052300Y-96647449D02*
X148052300Y-98632300D01*
X156227449Y-85932300D02*
X152100000Y-90059749D01*
X129000000Y-104500000D02*
X129000000Y-103000000D01*
X132420000Y-99580000D02*
X149000000Y-99580000D01*
X157012551Y-85932300D02*
X156227449Y-85932300D01*
X149382014Y-96092300D02*
X148607449Y-96092300D01*
X157567700Y-86487449D02*
X157012551Y-85932300D01*
X120400000Y-110215256D02*
X120400000Y-111784744D01*
X158500000Y-115500000D02*
X152900000Y-109900000D01*
X156237986Y-87827700D02*
X157012551Y-87827700D01*
X152100000Y-90059749D02*
X152100000Y-93374314D01*
X152100000Y-93374314D02*
X149382014Y-96092300D01*
X157012551Y-87827700D02*
X157567700Y-87272551D01*
X148052300Y-98632300D02*
X149000000Y-99580000D01*
X126115256Y-104500000D02*
X120400000Y-110215256D01*
%TO.N,Net-(U2-DISCH)*%
X143460000Y-112500000D02*
X140920000Y-112500000D01*
X138690000Y-114730000D02*
X140920000Y-112500000D01*
X136620000Y-114730000D02*
X138690000Y-114730000D01*
%TO.N,tr*%
X146000000Y-112500000D02*
X141230000Y-117270000D01*
X121500000Y-111000000D02*
X125230000Y-114730000D01*
X141230000Y-117270000D02*
X136620000Y-117270000D01*
X125230000Y-114730000D02*
X129000000Y-114730000D01*
%TO.N,Net-(D7-A)*%
X162000000Y-59500000D02*
X162000000Y-92000000D01*
X162000000Y-92000000D02*
X159120000Y-92000000D01*
X159120000Y-92000000D02*
X156620000Y-94500000D01*
X154500000Y-52000000D02*
X162000000Y-59500000D01*
X137040000Y-52000000D02*
X154500000Y-52000000D01*
%TD*%
M02*
